<?xml version="1.0" standalone="no"?>
<!DOCTYPE svg PUBLIC "-//W3C//DTD SVG 20010904//EN"
 "http://www.w3.org/TR/2001/REC-SVG-20010904/DTD/svg10.dtd">
<svg version="1.0" xmlns="http://www.w3.org/2000/svg"
 width="1024.000000pt" height="1024.000000pt" viewBox="0 0 1024.000000 1024.000000"
 preserveAspectRatio="xMidYMid meet">

<g transform="translate(0.000000,1024.000000) scale(0.100000,-0.100000)"
fill="#000000" stroke="none">
<path d="M0 6705 l0 -3534 58 -3 57 -3 3 -96 3 -95 -61 4 -60 4 0 -106 0 -107
63 3 62 3 3 98 3 97 104 0 105 0 0 -39 c0 -21 3 -66 6 -100 l7 -61 98 0 99 0
0 100 0 100 218 -2 217 -3 2 -45 c7 -119 16 -190 24 -190 5 0 9 10 8 23 -3 36
2 93 7 80 3 -7 12 -9 20 -6 8 3 14 -1 14 -11 0 -9 8 -16 20 -16 11 0 20 7 20
15 0 8 5 15 10 15 6 0 10 -9 10 -20 0 -17 -7 -20 -42 -20 -23 0 -39 -3 -36 -6
4 -3 43 -2 87 2 l81 7 0 89 0 89 103 -3 102 -3 4 -45 c2 -35 5 -41 11 -25 8
18 9 17 9 -7 1 -26 4 -28 41 -28 33 0 40 3 40 20 0 17 7 20 40 20 34 0 40 -3
41 -22 1 -13 5 -5 9 17 7 40 7 40 9 -14 1 -70 7 -63 16 22 l7 68 -112 -3 -111
-3 3 100 3 100 105 0 105 0 3 -92 c3 -89 3 -91 29 -98 38 -9 171 5 176 19 2 6
5 47 6 91 1 44 6 84 10 88 5 5 41 7 80 5 71 -3 91 6 74 35 -3 7 -2 8 3 4 14
-13 65 105 52 121 -7 8 -7 12 1 12 7 0 9 5 6 10 -3 6 1 10 9 10 9 0 16 6 16
13 0 6 10 23 21 37 11 14 17 19 13 11 -5 -10 -3 -12 5 -7 7 5 10 10 7 13 -3 3
8 22 25 42 l30 36 -51 48 c-27 27 -54 46 -59 42 -5 -3 -13 0 -17 6 -5 8 -3 9
7 4 8 -5 -15 21 -50 58 -35 36 -68 64 -73 61 -4 -3 -8 2 -8 11 0 10 -5 13 -12
9 -6 -4 -8 -3 -5 4 6 8 -47 80 -113 154 -8 9 -26 35 -40 58 -14 23 -37 56 -51
74 -63 76 -64 81 -61 321 3 263 15 510 32 662 9 84 10 115 1 132 -12 22 -6 61
9 61 5 0 11 -6 14 -12 3 -7 4 7 1 32 -3 25 -2 39 3 33 5 -8 17 32 30 100 12
61 25 123 29 136 5 20 3 23 -10 18 -10 -4 -17 -5 -17 -4 0 1 4 17 9 35 7 22 6
32 -2 32 -8 0 -8 3 1 12 7 7 12 23 12 38 0 16 3 20 8 13 6 -9 12 -7 25 7 11
14 13 20 4 21 -6 0 -3 4 9 9 12 4 35 37 54 74 l32 66 -16 193 c-9 105 -16 234
-16 285 0 53 -4 92 -10 92 -11 0 -5 42 15 110 17 58 37 199 29 211 -3 5 0 9 7
9 7 0 10 3 6 6 -3 4 3 14 15 24 18 14 47 17 177 19 85 1 163 6 172 12 10 5 26
6 36 3 52 -18 -65 48 -142 80 -49 20 -103 43 -120 51 -16 8 -57 23 -90 34 -33
10 -121 47 -195 81 -74 34 -170 77 -214 96 -43 18 -86 39 -95 47 -9 7 -45 28
-81 47 -81 42 -158 101 -234 179 -33 33 -63 58 -68 55 -7 -5 -12 10 -9 29 0 4
-3 7 -8 7 -5 0 -17 18 -27 40 -13 28 -21 37 -29 30 -9 -7 -12 -3 -12 17 0 16
-10 66 -23 113 -52 195 4 409 157 597 24 29 38 53 31 53 -6 0 -8 3 -5 7 4 3
-1 15 -10 25 -15 17 -15 18 -1 13 9 -4 19 -14 23 -23 5 -14 7 -14 15 -2 6 9 5
17 -3 22 -7 4 -3 6 10 5 18 -1 20 -4 12 -19 -6 -11 18 4 52 32 35 27 67 50 72
50 4 0 5 4 2 10 -3 5 3 15 15 22 11 7 20 18 20 25 0 7 5 13 11 13 5 0 7 -4 4
-10 -3 -6 1 -7 9 -4 9 3 13 11 9 17 -3 5 -1 7 4 4 6 -4 49 10 95 32 81 38 201
80 284 101 42 10 101 69 86 85 -4 5 -2 5 5 1 7 -4 23 0 36 9 23 14 87 12 85
-4 -5 -47 59 -36 117 19 22 21 61 51 87 68 26 16 44 33 40 37 -4 5 -2 5 5 1 7
-4 34 4 60 17 42 21 236 99 256 103 4 1 24 2 45 3 29 1 34 4 22 12 -12 9 -12
10 3 5 10 -3 34 -6 53 -6 20 0 33 -4 30 -9 -7 -11 129 -23 174 -15 45 7 81 25
74 35 -3 5 5 5 18 0 17 -6 30 -5 43 5 10 8 24 14 29 14 6 0 4 -5 -4 -11 -12
-9 -12 -10 3 -5 10 3 26 6 35 7 14 0 13 2 -3 9 -15 7 -8 9 25 8 25 -1 137 20
250 46 113 25 288 60 390 77 102 16 230 39 285 50 64 13 162 23 270 27 275 11
1018 7 1144 -6 83 -9 117 -9 122 -1 3 6 14 44 24 85 10 41 20 74 24 74 7 0 62
-110 61 -123 0 -5 10 -21 21 -35 l22 -27 -5 28 c-6 30 11 37 32 12 7 -8 18
-15 24 -15 13 0 39 77 31 90 -3 6 1 7 10 4 9 -4 23 -24 32 -45 8 -21 19 -37
23 -34 5 3 10 -1 12 -9 5 -21 35 7 80 74 21 30 47 66 59 80 17 21 20 21 14 5
-4 -11 -9 -29 -11 -41 -2 -11 -13 -49 -24 -84 -11 -34 -20 -75 -20 -89 0 -15
-6 -33 -12 -39 -10 -10 -16 -3 -29 35 l-17 48 -1 -100 c-2 -274 -36 -419 -137
-580 -40 -65 -242 -267 -257 -258 -7 3 -9 3 -5 -2 4 -4 -11 -22 -34 -39 -23
-17 -53 -41 -66 -53 -14 -13 -29 -23 -33 -23 -4 0 -20 -11 -34 -26 -14 -14
-30 -22 -35 -19 -6 3 -7 -1 -4 -10 5 -11 2 -14 -12 -8 -12 4 -15 3 -10 -5 4
-7 3 -12 -2 -12 -14 0 -237 -213 -234 -223 1 -5 -2 -6 -7 -3 -5 3 -16 -5 -25
-19 -9 -14 -28 -38 -42 -53 -89 -97 -238 -386 -300 -582 -9 -30 -21 -64 -25
-75 -10 -24 -65 -252 -75 -310 -3 -22 -13 -48 -22 -57 -14 -16 -13 -18 1 -18
10 0 17 3 17 8 0 4 13 7 29 8 55 2 57 6 65 101 25 327 141 646 324 888 87 115
255 270 438 406 99 73 205 155 236 182 95 82 166 196 281 452 50 113 135 254
169 283 12 10 14 22 7 59 -5 25 -7 49 -4 51 3 3 5 0 5 -7 0 -7 8 -23 17 -35
l18 -23 60 48 c79 64 99 63 43 -3 -90 -106 -157 -262 -183 -422 -8 -54 -18
-103 -21 -107 -13 -22 -6 -150 10 -174 9 -13 16 -30 16 -38 0 -7 8 -22 18 -33
17 -19 48 -61 67 -93 29 -48 58 -81 66 -76 5 4 9 -5 9 -20 0 -14 6 -28 14 -31
8 -3 12 -12 9 -20 -3 -8 1 -14 8 -14 30 0 41 -21 69 -125 34 -125 47 -219 32
-229 -5 -3 -12 4 -15 15 -3 12 -10 18 -16 14 -7 -4 -9 1 -5 12 5 16 4 16 -8 3
-7 -9 -21 -14 -32 -12 -10 2 -16 0 -13 -6 4 -5 -6 -15 -21 -23 -15 -8 -36 -22
-46 -31 -11 -10 -23 -18 -27 -18 -4 0 -11 -9 -14 -20 -3 -11 -12 -20 -20 -20
-7 0 -28 -15 -47 -33 -33 -33 -39 -42 -79 -104 -12 -18 -27 -33 -34 -33 -8 0
-25 -25 -39 -55 -14 -30 -30 -55 -35 -55 -6 0 -11 -8 -11 -19 0 -10 -7 -24
-14 -31 -8 -6 -22 -34 -31 -61 -9 -27 -21 -49 -26 -49 -5 0 -9 -8 -9 -19 0
-10 -7 -24 -15 -31 -8 -7 -15 -19 -15 -27 0 -24 -31 -63 -51 -63 -21 0 -27
-20 -6 -20 6 0 4 -5 -6 -11 -9 -5 -29 -22 -43 -36 -20 -20 -23 -28 -12 -34 9
-6 6 -9 -12 -9 -14 0 -20 -4 -15 -8 13 -9 16 -42 3 -42 -5 0 -3 -7 5 -15 16
-15 40 -133 56 -275 24 -201 32 -335 41 -670 9 -358 14 -409 50 -483 11 -22
20 -47 20 -54 0 -7 5 -13 10 -13 6 0 15 -12 20 -27 16 -42 34 -77 45 -85 6 -5
5 -8 -4 -8 -10 0 -11 -3 -2 -14 22 -26 72 -189 81 -264 7 -54 6 -78 -3 -92 -6
-11 -15 -20 -19 -20 -3 0 -15 -3 -25 -6 -11 -4 -14 -3 -6 3 8 6 6 15 -9 33
-14 16 -22 21 -25 13 -3 -7 -12 -13 -21 -13 -15 -1 -14 -3 2 -15 16 -12 17
-15 4 -15 -9 0 -19 -7 -22 -16 -4 -9 -9 -14 -12 -11 -10 10 -32 -17 -26 -32 4
-10 -1 -11 -18 -6 -21 7 -22 5 -17 -21 4 -16 4 -23 1 -16 -6 14 -34 17 -34 3
0 -5 4 -11 9 -13 5 -1 3 -11 -4 -21 -13 -18 -14 -18 -39 0 -28 20 -34 43 -11
43 20 0 8 27 -16 33 -11 3 -19 14 -19 26 0 12 -6 21 -12 21 -9 0 -9 3 1 9 11
7 12 13 3 23 -9 11 -9 17 1 27 9 9 9 14 -2 20 -11 7 -11 9 0 14 9 3 3 9 -16
16 -17 7 -25 15 -19 19 16 10 13 42 -3 42 -8 0 -13 11 -13 28 0 21 2 24 10 12
8 -12 10 -12 10 -1 0 8 -8 20 -17 27 -17 13 -17 13 2 14 18 1 18 2 -4 14 -20
11 -21 14 -7 19 10 4 14 11 11 17 -4 6 -11 8 -16 5 -5 -4 -9 -1 -9 4 0 6 8 11
18 12 14 0 14 2 2 7 -18 9 -20 34 -2 45 11 7 10 14 -4 34 -14 23 -15 25 -1 20
11 -4 14 -2 10 9 -3 7 -9 14 -14 14 -5 0 -8 11 -7 25 2 16 7 24 15 21 16 -7
17 6 1 22 -9 9 -8 12 6 12 12 0 17 7 15 23 -4 31 22 86 45 93 13 4 15 8 6 14
-8 5 -8 9 4 13 9 4 16 15 16 24 0 10 8 30 18 43 15 22 17 53 17 290 -1 281 -4
379 -13 395 -4 5 -7 41 -9 80 -3 113 -24 356 -34 415 -14 76 -19 92 -29 88
-15 -6 -197 -269 -250 -363 -18 -33 -36 -62 -39 -65 -4 -3 -41 -77 -84 -165
-43 -88 -84 -171 -91 -185 -8 -14 -16 -38 -20 -55 -12 -50 -104 -233 -123
-243 -14 -9 -15 -13 -4 -26 11 -13 11 -16 -1 -16 -16 0 -88 -70 -88 -86 0 -30
-155 -81 -268 -88 -93 -7 -156 -22 -222 -56 -19 -10 -53 -26 -75 -36 -110 -52
-282 -182 -406 -307 -70 -70 -137 -141 -150 -157 -13 -17 -37 -46 -54 -64 -16
-18 -70 -87 -120 -154 -49 -67 -95 -122 -102 -122 -7 0 -13 -4 -13 -9 0 -17
-84 -104 -129 -133 l-45 -28 50 0 c27 0 65 4 83 10 19 5 36 8 38 6 7 -7 -9
-36 -18 -31 -4 3 -6 -4 -4 -16 2 -11 -3 -40 -11 -62 -8 -23 -18 -86 -21 -140
-7 -111 -7 -111 72 -76 29 13 85 24 148 30 400 36 875 127 1010 194 57 28 63
34 79 80 22 64 23 213 3 331 -16 91 -50 227 -60 244 -3 6 -8 18 -10 27 -24 95
-30 113 -38 113 -5 0 -7 7 -4 15 4 8 0 27 -8 42 -18 34 -20 104 -3 121 29 29
117 8 159 -37 26 -28 83 -145 98 -201 6 -25 18 -70 27 -100 18 -63 20 -91 33
-370 6 -126 6 -221 1 -245 -5 -22 -10 -60 -10 -84 0 -56 -44 -149 -76 -161
-13 -5 -27 -18 -33 -28 -6 -11 -26 -23 -46 -26 -19 -4 -35 -10 -35 -14 0 -8
-96 -73 -113 -76 -20 -4 -107 -48 -113 -57 -3 -5 -16 -9 -29 -9 -13 0 -26 -4
-29 -8 -5 -8 -98 -39 -186 -62 -25 -7 -53 -16 -62 -21 -10 -5 -29 -9 -43 -9
-27 0 -144 -16 -215 -30 -25 -5 -89 -14 -142 -21 -54 -7 -98 -17 -98 -21 0 -5
-4 -7 -8 -4 -7 4 -103 -8 -237 -29 -11 -2 -45 -6 -75 -9 -30 -4 -82 -13 -115
-21 -33 -8 -76 -17 -95 -20 -63 -11 -165 -38 -174 -47 -6 -4 -17 -8 -25 -8 -9
0 -56 -23 -106 -51 -50 -28 -104 -51 -121 -52 -20 0 -68 18 -130 50 -55 28
-139 67 -189 86 -97 39 -307 97 -348 97 -24 0 -25 -2 -16 -32 10 -38 4 -68
-16 -68 -15 0 -74 63 -100 108 -10 17 -30 36 -44 41 -40 16 -141 40 -141 34 0
-11 76 -99 158 -182 45 -46 82 -82 82 -79 0 3 23 -17 51 -43 28 -27 75 -62
104 -78 29 -16 58 -36 66 -43 12 -12 177 -107 204 -117 6 -2 43 -19 84 -38 78
-36 152 -64 186 -69 37 -7 110 -23 175 -39 36 -9 77 -19 93 -22 15 -3 27 -9
27 -13 0 -4 15 -10 33 -13 17 -4 57 -11 87 -16 133 -23 560 -3 710 34 18 5 21
4 10 -3 -22 -14 -253 -58 -410 -78 -128 -16 -362 -15 -520 1 l-45 5 47 -18
c27 -9 47 -21 47 -26 0 -5 5 -12 12 -16 22 -14 1 -37 -50 -56 -28 -10 -51 -22
-51 -26 0 -4 -6 -8 -13 -8 -14 0 -77 -118 -77 -144 0 -8 -4 -17 -9 -21 -5 -3
-12 -19 -16 -35 -4 -17 -11 -27 -17 -24 -6 4 -8 -1 -3 -15 4 -12 2 -21 -4 -21
-6 0 -11 -8 -11 -17 0 -10 -10 -38 -21 -63 -47 -98 -51 -109 -46 -124 3 -8 0
-20 -8 -26 -7 -6 -14 -19 -14 -28 0 -28 -7 -52 -19 -64 -7 -7 -12 -17 -12 -24
0 -6 -7 -25 -15 -40 -8 -16 -15 -39 -15 -51 0 -13 -4 -23 -10 -23 -5 0 -10 -8
-10 -18 0 -26 -40 -142 -50 -142 -4 0 -13 -21 -20 -48 -6 -26 -16 -56 -21 -67
-5 -11 -11 -31 -14 -44 -2 -12 -8 -28 -13 -35 -5 -6 -15 -34 -22 -63 -14 -63
-40 -116 -72 -147 -26 -25 -55 -39 -61 -28 -2 4 -2 0 0 -8 14 -50 15 -70 3
-70 -7 0 -10 -7 -6 -16 3 -8 2 -12 -4 -9 -6 3 -10 0 -10 -9 0 -9 -27 -25 -71
-41 -38 -15 -69 -29 -67 -31 2 -2 40 3 83 11 44 7 121 18 170 24 50 6 122 15
160 21 39 6 120 13 180 15 129 5 148 7 157 19 8 11 9 12 124 21 90 7 91 7 99
-17 5 -16 8 -19 11 -8 4 12 21 16 67 18 74 3 120 11 128 24 7 10 202 14 218 3
6 -3 8 0 5 8 -3 8 -1 18 5 22 6 3 11 0 11 -8 0 -24 161 -47 185 -27 8 6 19 9
25 5 6 -4 45 -8 86 -10 41 -1 77 -5 80 -7 2 -3 7 -28 11 -56 7 -61 27 -83 86
-93 37 -7 35 -7 -21 -6 -34 1 -62 -1 -62 -4 0 -7 112 -19 173 -19 34 0 37 2
37 28 0 33 17 61 28 47 4 -5 16 -11 27 -12 102 -8 145 -22 113 -37 -7 -3 0 -4
15 -2 20 2 25 0 18 -7 -6 -6 -54 -13 -106 -15 l-95 -4 2 -75 c1 -41 5 -76 10
-79 4 -3 9 5 9 18 1 19 3 18 9 -7 4 -16 8 -22 9 -13 1 22 50 21 68 -2 8 -9 12
-11 13 -3 0 9 11 9 45 -1 l45 -14 0 61 c0 69 8 107 21 107 5 0 8 -5 7 -11 -2
-8 24 -12 79 -14 46 -1 86 -5 90 -9 4 -3 12 -41 17 -84 l11 -77 103 -3 102 -3
0 -54 c0 -57 16 -84 23 -38 l4 28 2 -28 c1 -19 5 -26 13 -21 6 4 47 8 90 8 61
1 78 -2 82 -14 3 -8 5 1 4 20 0 19 0 50 1 68 l1 33 104 -2 104 -1 7 -58 7 -58
56 4 c32 3 71 6 88 9 18 2 36 -1 42 -7 11 -11 20 3 36 55 5 17 16 18 113 13
60 -3 118 -6 131 -6 13 -1 26 0 29 3 2 3 -14 29 -37 58 -100 126 -155 288
-245 714 -40 190 -112 481 -126 507 -5 10 -12 57 -15 104 -5 80 -3 89 20 125
15 21 26 41 26 45 0 10 98 147 135 188 19 22 37 48 41 58 3 10 10 18 15 18 6
0 14 12 20 27 5 16 28 41 49 57 22 17 40 33 40 38 0 11 38 48 50 48 6 0 10 6
10 13 0 12 100 69 128 74 8 1 19 8 23 15 5 7 9 9 9 4 0 -6 6 -2 13 7 10 14 32
17 120 19 59 2 107 0 107 -4 0 -4 19 -11 43 -15 23 -5 42 -14 42 -20 0 -6 4
-15 9 -20 5 -5 6 -3 2 5 -4 7 -1 15 8 18 9 3 13 10 10 16 -3 5 -12 7 -19 4 -8
-3 -12 2 -10 12 1 9 -2 24 -8 32 -5 8 5 0 23 -19 20 -21 53 -41 89 -52 42 -13
49 -18 28 -18 -16 -1 -37 4 -47 9 -15 8 -18 7 -14 -3 5 -15 53 -42 67 -39 4 1
7 -2 7 -8 0 -5 5 -10 11 -10 6 0 9 7 5 15 -6 17 2 19 23 6 10 -7 8 -12 -9 -24
-21 -15 -20 -15 29 -32 50 -16 61 -27 41 -40 -20 -12 -10 -26 11 -15 28 15 39
2 15 -16 -17 -12 -18 -14 -3 -14 19 0 23 -26 5 -32 -8 -3 -6 -13 9 -31 13 -17
23 -23 25 -15 3 8 7 6 11 -6 4 -11 3 -15 -4 -11 -6 4 -9 1 -7 -6 4 -20 -32
-70 -45 -62 -5 3 -7 1 -4 -5 9 -13 -67 -126 -176 -262 -46 -58 -89 -115 -95
-127 -7 -12 -12 -58 -12 -102 l0 -80 53 -59 c28 -32 98 -103 154 -157 57 -54
101 -101 98 -104 -3 -2 -11 1 -17 7 -17 17 -28 15 -21 -5 4 -11 3 -14 -5 -9
-8 5 -10 2 -6 -9 5 -12 9 -13 20 -4 9 8 14 8 14 1 0 -6 -5 -14 -10 -17 -6 -4
-8 -10 -5 -15 3 -5 -2 -13 -11 -18 -10 -6 -15 -16 -11 -25 3 -9 -1 -18 -10
-22 -12 -4 -13 -9 -5 -17 6 -6 8 -17 4 -26 -4 -11 -1 -14 12 -9 10 4 15 3 11
-3 -3 -6 -12 -10 -18 -10 -12 0 -67 -63 -67 -76 0 -5 15 6 33 23 37 35 78 63
91 63 5 0 -9 -12 -30 -26 -76 -51 -93 -72 -90 -116 1 -22 9 -44 17 -49 11 -8
9 -9 -6 -5 -18 5 -20 1 -18 -45 1 -38 -4 -56 -18 -70 -10 -10 -19 -30 -19 -44
0 -14 -11 -37 -25 -51 -24 -24 -24 -25 -9 -64 14 -35 14 -45 3 -73 -8 -17 -13
-35 -11 -39 1 -5 -22 -9 -50 -9 l-53 -2 42 -6 c23 -4 48 -13 57 -20 42 -35 45
-162 6 -228 -11 -18 -29 -49 -41 -68 l-21 -36 44 7 c23 4 45 10 48 14 3 4 35
24 71 44 76 42 153 60 169 41 9 -11 60 -27 60 -19 0 1 -29 23 -65 49 -36 25
-69 54 -75 65 -28 52 3 132 62 164 42 23 76 18 100 -14 25 -34 51 -163 46
-232 -5 -63 -3 -65 60 -52 23 5 31 13 36 35 5 26 10 29 43 29 79 0 173 13 173
24 0 7 31 11 90 11 49 0 90 3 90 8 0 15 19 6 25 -13 6 -18 15 -20 115 -20 99
0 108 2 113 20 4 17 13 19 76 17 39 -1 72 1 74 5 4 13 47 -4 47 -18 0 -20 34
-25 135 -22 88 3 90 4 93 28 4 29 22 52 22 28 0 -11 6 -15 20 -11 11 3 17 9
14 14 -3 5 8 9 24 9 16 0 43 3 59 6 20 4 35 1 46 -10 14 -14 16 -13 23 17 l7
32 9 -25 c9 -23 11 -23 17 -6 5 13 19 19 47 21 21 2 51 6 67 9 24 6 28 3 33
-24 4 -17 10 -33 14 -35 5 -3 6 -14 3 -25 -3 -11 -1 -20 5 -20 5 0 12 9 15 20
4 14 14 20 35 20 17 0 37 6 45 14 8 8 32 16 53 18 34 3 39 6 44 33 5 28 8 30
55 33 27 1 56 9 65 17 29 26 65 18 91 -20 13 -19 27 -35 31 -35 4 0 13 12 20
27 14 29 29 39 71 48 39 8 33 23 -11 27 -30 3 -33 5 -17 12 11 4 37 16 57 26
37 19 38 19 52 -2 15 -20 16 -20 63 -4 26 10 62 20 78 23 52 8 63 15 35 22
l-25 7 36 37 c22 23 45 37 61 37 13 0 29 5 36 12 9 9 12 9 12 0 0 -19 24 -14
38 8 7 12 23 25 37 30 13 5 29 21 37 37 7 15 26 34 41 41 16 8 32 24 37 36 4
12 15 28 25 36 14 12 18 12 26 -1 7 -11 17 -6 48 26 21 22 51 48 65 58 15 10
24 23 21 28 -4 5 -11 7 -16 4 -5 -4 -9 14 -9 39 0 42 2 46 25 46 20 0 25 5 25
25 0 23 4 25 40 25 29 0 40 4 40 15 0 8 7 15 15 15 12 0 15 16 15 80 0 64 -3
80 -15 80 -11 0 -15 -11 -15 -40 0 -22 -4 -40 -10 -40 -5 0 -10 18 -10 40 l0
40 -40 0 c-40 0 -40 0 -40 39 0 55 -20 71 -86 71 -51 0 -54 1 -54 25 0 15 -6
25 -14 25 -7 0 -16 9 -19 19 -5 21 -54 33 -120 29 -30 -1 -39 -6 -43 -25 -7
-25 -14 -28 -29 -14 -6 5 -29 11 -52 13 -33 3 -43 0 -43 -11 0 -11 -3 -10 -14
4 -13 18 -13 18 -24 0 -9 -17 -11 -14 -21 21 -6 21 -11 46 -11 54 0 12 -10 14
-45 12 -28 -3 -45 0 -45 7 0 19 -32 12 -52 -11 -15 -17 -21 -19 -27 -9 -6 8
-10 2 -15 -19 -5 -26 -9 -30 -20 -21 -11 9 -15 9 -19 -1 -4 -8 -8 -9 -14 -3
-4 6 -17 12 -28 13 -11 2 -24 8 -29 13 -6 5 -23 9 -38 9 -21 0 -31 6 -38 25
-9 24 -12 25 -105 25 -86 0 -95 -2 -95 -19 0 -16 -10 -19 -72 -25 -96 -7 -114
-5 -131 18 -18 25 -47 29 -47 8 -1 -15 -2 -15 -14 1 -14 18 -15 18 -26 0 -17
-27 -2 54 17 91 22 42 60 182 68 249 5 47 3 62 -9 76 -11 12 -20 51 -26 117
-5 55 -14 125 -19 157 -11 63 -48 176 -62 192 -5 5 -9 17 -9 27 0 10 -5 18
-11 18 -5 0 -8 4 -5 9 3 4 -7 14 -21 20 -22 10 -24 14 -12 22 11 7 11 9 -5 9
-12 0 -16 5 -12 15 3 9 0 18 -7 21 -8 3 -12 26 -13 62 -1 99 -52 172 -213 305
-94 77 -113 94 -94 83 9 -5 11 -2 7 9 -5 13 -9 13 -22 3 -13 -11 -15 -10 -10
10 5 16 1 25 -13 33 -11 5 -17 14 -14 20 4 5 -1 9 -9 9 -9 0 -15 4 -14 9 2 5
-8 18 -21 30 -13 12 -22 24 -18 27 3 3 -10 21 -29 40 -19 19 -34 44 -34 54 0
11 -6 19 -12 18 -8 -2 -12 6 -11 19 2 13 -2 22 -9 20 -6 -1 -17 8 -23 20 -7
13 -19 31 -28 41 -10 10 -17 24 -17 30 0 7 -7 12 -16 12 -11 0 -14 5 -10 17 4
10 4 14 0 10 -7 -7 -63 61 -64 77 0 5 -9 18 -20 30 -46 47 -90 104 -90 115 0
6 -6 11 -14 11 -8 0 -16 7 -20 15 -3 8 -15 15 -27 15 -14 0 -19 5 -16 14 7 18
-15 27 -34 15 -9 -6 -10 -9 -2 -9 9 0 10 -7 3 -26 -6 -14 -8 -30 -4 -35 3 -5
1 -9 -3 -9 -5 0 -9 -8 -10 -17 -2 -41 -15 -118 -21 -128 -4 -5 -7 -17 -9 -25
-1 -8 -11 -22 -21 -31 -18 -14 -18 -16 -3 -28 15 -11 14 -12 -1 -7 -11 3 -18
0 -18 -8 0 -21 -33 -25 -70 -10 -18 8 -42 14 -54 15 -20 0 -20 1 -1 9 17 7 14
9 -15 10 -19 1 -29 4 -22 7 29 12 2 53 -37 56 -12 1 -21 5 -21 10 0 5 7 7 14
4 10 -4 13 -1 9 9 -3 7 -8 14 -12 14 -3 0 -15 7 -26 16 -17 13 -18 16 -5 24
10 7 11 10 3 10 -7 0 -14 10 -14 23 -1 16 -2 18 -6 4 -2 -9 -11 -17 -18 -17
-9 0 -12 6 -9 15 4 9 0 15 -10 15 -9 0 -16 5 -16 11 0 6 7 9 15 5 8 -3 15 -1
15 4 0 6 -4 10 -10 10 -5 0 -7 7 -3 16 5 13 2 15 -17 9 -19 -6 -22 -4 -17 9 4
9 2 16 -3 16 -6 0 -10 7 -10 15 0 8 -6 15 -12 15 -10 0 -10 2 0 8 9 7 8 13 -8
27 -11 10 -20 24 -20 32 0 7 -8 13 -17 14 -15 0 -15 2 2 9 19 9 19 9 -2 16
-13 3 -20 10 -18 15 3 4 13 6 23 3 16 -5 16 -5 0 6 -10 6 -18 18 -18 25 0 9
-10 15 -22 16 -13 0 -17 3 -10 6 18 7 15 27 -9 57 -16 21 -24 24 -30 15 -9
-16 -24 34 -16 55 3 8 0 22 -7 32 -12 15 -13 14 -11 -12 1 -16 0 -21 -2 -11
-2 9 -9 17 -14 17 -6 0 -8 4 -5 9 3 5 -2 12 -11 15 -14 6 -14 8 3 21 18 13 18
14 -8 24 -20 7 -25 15 -21 30 6 25 -21 30 -31 6 -3 -8 -11 -15 -18 -15 -9 0
-8 3 2 10 13 8 12 10 -2 10 -10 0 -18 5 -18 11 0 6 9 8 23 3 18 -5 15 0 -14
27 -19 19 -28 29 -20 23 9 -6 38 -24 64 -39 33 -19 46 -32 42 -43 -4 -11 -2
-12 7 -4 15 12 53 -9 40 -23 -4 -5 -2 -5 4 -2 7 4 42 -9 79 -28 81 -43 91 -38
101 44 l6 58 44 -10 c24 -6 41 -13 39 -17 -2 -3 6 -7 17 -7 11 -1 26 -10 34
-20 7 -10 14 -14 14 -10 0 11 -35 63 -69 102 -31 35 -27 32 112 -79 60 -47
113 -83 118 -80 5 3 8 2 7 -3 -2 -5 20 -29 47 -54 90 -80 224 -224 307 -328
44 -55 84 -101 89 -101 5 0 9 -5 9 -11 0 -18 62 -89 73 -82 6 3 7 1 3 -5 -9
-15 34 -73 47 -65 6 3 7 2 4 -4 -9 -14 42 -85 55 -77 7 4 8 2 4 -5 -4 -6 16
-44 47 -89 29 -42 72 -108 95 -147 24 -38 51 -80 60 -91 36 -43 230 -127 271
-118 17 4 22 3 13 -3 -9 -7 8 -18 56 -36 202 -80 451 -87 622 -19 75 30 217
114 243 144 14 17 15 24 5 37 -11 14 -10 14 6 0 17 -16 22 -12 95 66 72 79
136 167 99 137 -13 -10 -17 -10 -22 5 -4 10 -4 14 0 10 4 -4 16 1 27 10 11 10
17 12 13 6 -4 -7 -5 -13 -3 -13 3 0 15 17 27 38 58 96 81 144 76 158 -3 8 -2
13 3 9 12 -7 45 91 35 106 -4 7 -3 9 3 6 6 -4 14 4 17 17 7 28 -23 95 -34 76
-5 -8 -10 -9 -14 -1 -8 13 -93 51 -113 51 -8 0 -11 5 -8 10 3 6 -1 10 -9 10
-19 0 -28 14 -21 32 4 9 16 13 33 10 l27 -4 -3 66 c-3 61 -2 66 17 66 12 0 21
4 21 10 0 5 -6 7 -13 5 -9 -4 -13 22 -15 111 -3 106 -1 115 15 112 10 -1 24 1
32 6 8 6 12 5 8 0 -3 -5 16 -18 41 -28 26 -11 59 -28 74 -38 14 -10 29 -18 32
-18 19 0 -4 358 -29 455 -11 42 -11 47 0 31 24 -32 44 -146 55 -321 13 -188 9
-319 -16 -470 -10 -55 -18 -113 -19 -130 -3 -34 -1 -27 -44 -160 -18 -55 -51
-138 -74 -185 -38 -81 -137 -226 -164 -243 -7 -4 -13 -15 -13 -22 0 -8 -3 -15
-7 -15 -5 0 -35 -25 -68 -56 -104 -97 -139 -123 -221 -160 -139 -64 -212 -85
-310 -91 -99 -6 -268 11 -318 32 -17 7 -58 21 -91 31 -33 10 -89 32 -125 49
-36 18 -71 30 -79 27 -9 -3 -11 0 -7 7 5 7 2 10 -6 9 -7 -2 -12 2 -11 8 1 6
-4 11 -12 11 -8 0 -11 -5 -8 -11 4 -6 27 -42 52 -81 25 -38 67 -113 94 -165
26 -52 46 -85 43 -72 -2 12 0 20 5 16 5 -3 9 -18 9 -34 0 -28 19 -54 21 -28 0
7 4 4 9 -7 7 -17 9 -16 10 10 l2 30 8 -30 c4 -16 8 -53 9 -80 l1 -51 100 4
100 4 0 -26 c0 -26 0 -26 80 -26 69 0 80 -2 80 -17 0 -15 2 -16 10 -3 8 12 10
10 10 -8 0 -13 4 -21 9 -18 5 3 9 22 9 42 0 19 2 37 4 39 2 2 45 5 96 7 l92 3
0 65 0 65 84 3 c47 1 87 -1 90 -6 2 -4 6 -32 7 -62 l3 -55 -89 -5 -90 -5 0
-40 0 -40 87 -5 87 -5 -1 38 c0 21 2 40 5 43 2 3 47 6 98 7 l94 2 6 -50 c3
-27 7 -43 8 -35 1 13 2 13 11 0 5 -8 10 -10 10 -5 0 6 19 9 45 7 31 -3 45 0
45 8 0 10 3 10 14 0 12 -9 16 -5 22 24 3 20 10 39 15 42 5 3 47 7 94 10 l85 4
0 -27 c0 -16 5 -35 10 -43 10 -16 70 -23 70 -8 0 5 19 8 43 6 33 -2 46 1 60
19 9 11 17 26 17 31 0 16 19 19 113 21 l87 2 0 -27 0 -27 74 5 c67 4 106 20
106 42 0 3 -40 6 -90 6 l-90 0 0 50 c0 50 0 50 32 50 18 0 51 7 75 16 60 23
73 15 73 -45 0 -40 4 -52 20 -61 11 -6 25 -8 30 -5 7 4 10 1241 10 3531 l0
3524 -5120 0 -5120 0 0 -3535z m340 3385 c0 -5 -2 -10 -4 -10 -3 0 -8 5 -11
10 -3 6 -1 10 4 10 6 0 11 -4 11 -10z m420 -180 c0 -5 -10 -10 -22 -9 -22 0
-22 1 -3 9 11 5 21 9 23 9 1 1 2 -3 2 -9z m-478 -7 c-23 -2 -61 -2 -85 0 -23
2 -4 4 43 4 47 0 66 -2 42 -4z m816 0 c-15 -2 -42 -2 -60 0 -18 2 -6 4 27 4
33 0 48 -2 33 -4z m9079 -55 c-3 -7 -5 -2 -5 12 0 14 2 19 5 13 2 -7 2 -19 0
-25z m-10071 -122 c18 -18 18 -26 0 -26 -7 0 -16 9 -19 20 -6 24 -1 25 19 6z
m881 -18 c-3 -8 -6 -5 -6 6 -1 11 2 17 5 13 3 -3 4 -12 1 -19z m8813 2 c0 -5
-5 -10 -11 -10 -5 0 -7 5 -4 10 3 6 8 10 11 10 2 0 4 -4 4 -10z m370 -10 c-8
-5 -19 -10 -25 -10 -5 0 -3 5 5 10 8 5 20 10 25 10 6 0 3 -5 -5 -10z m-10033
-162 c-2 -13 -4 -3 -4 22 0 25 2 35 4 23 2 -13 2 -33 0 -45z m-17 -78 c0 -5
-2 -10 -4 -10 -3 0 -8 5 -11 10 -3 6 -1 10 4 10 6 0 11 -4 11 -10z m237 -162
c-2 -13 -4 -3 -4 22 0 25 2 35 4 23 2 -13 2 -33 0 -45z m6260 -5 c-3 -10 -5
-2 -5 17 0 19 2 27 5 18 2 -10 2 -26 0 -35z m-498 -68 c0 -5 -4 -3 -9 5 -5 8
-9 22 -9 30 0 16 17 -16 18 -35z m446 -55 c-9 -14 8 -13 23 2 9 9 12 9 11 -2
0 -8 -21 -33 -47 -54 -52 -43 -149 -164 -193 -241 -16 -27 -38 -61 -50 -75
l-21 -25 6 134 c3 82 10 139 18 148 26 32 173 93 226 93 12 0 21 3 21 8 -2 12
1 22 7 22 3 0 2 -4 -1 -10z m134 -97 c-70 -59 -130 -123 -145 -157 l-15 -31 6
48 c12 95 55 223 55 164 0 -18 31 -16 100 8 19 7 37 11 39 9 3 -2 -15 -21 -40
-41z m-6471 30 c-10 -2 -28 -2 -40 0 -13 2 -5 4 17 4 22 1 32 -1 23 -4z m0
-20 c-10 -2 -28 -2 -40 0 -13 2 -5 4 17 4 22 1 32 -1 23 -4z m6528 -68 c19 -8
54 -28 78 -45 25 -18 69 -37 107 -46 84 -19 104 -28 167 -76 67 -52 102 -110
96 -158 -3 -19 -5 -44 -5 -55 -2 -58 -22 -241 -27 -247 -12 -12 -93 106 -126
183 -35 81 -44 87 -161 106 l-50 8 3 46 c3 42 0 48 -36 81 -48 43 -100 58
-117 34 -27 -36 -50 -180 -50 -311 0 -147 11 -192 77 -310 38 -68 91 -144 69
-99 -6 12 -6 26 -1 34 7 12 9 10 9 -5 -1 -40 10 -65 58 -127 36 -45 56 -62 73
-62 13 0 26 6 28 13 3 9 0 11 -8 6 -9 -6 -11 -4 -5 4 5 9 10 10 18 2 7 -7 6
-15 -2 -25 -8 -10 -9 -16 -1 -21 5 -3 10 -11 10 -17 0 -5 -9 0 -19 13 -11 13
-23 21 -27 16 -8 -7 84 -108 95 -104 3 1 6 -1 6 -4 0 -15 39 -48 49 -42 6 3 8
3 4 -2 -11 -12 92 -114 109 -108 11 4 9 11 -9 32 l-23 26 27 -24 c17 -15 25
-30 22 -44 -2 -13 6 -32 23 -49 22 -23 29 -26 42 -15 14 10 14 10 4 -4 -10
-13 -4 -24 40 -67 29 -29 56 -50 59 -47 3 4 9 1 14 -6 4 -8 3 -10 -4 -5 -20
12 -13 -10 9 -30 11 -10 36 -40 56 -66 19 -27 40 -45 45 -41 7 3 8 1 4 -5 -3
-6 14 -41 39 -79 229 -339 307 -785 215 -1228 -38 -184 -94 -307 -234 -515
-135 -200 -350 -362 -533 -404 -121 -27 -131 -18 -15 14 137 38 291 128 413
242 68 63 74 81 9 27 -111 -93 -234 -165 -317 -185 -15 -4 -32 -10 -38 -14 -5
-4 -22 -10 -37 -14 -14 -3 -34 -9 -45 -12 -12 -5 -15 -4 -8 3 6 5 39 20 75 33
64 24 130 56 140 69 12 17 76 56 87 53 7 -2 13 2 13 8 0 5 6 10 13 10 23 0
142 110 139 128 -2 14 -1 15 7 2 8 -12 12 -10 19 10 6 14 32 48 60 77 27 29
47 54 45 57 -3 3 8 22 25 43 16 21 33 48 37 61 3 12 11 20 16 17 5 -4 9 3 9
15 0 11 9 38 20 60 27 54 48 139 55 222 2 26 6 52 10 57 3 6 3 16 -1 22 -3 6
-8 50 -10 97 -2 48 -9 99 -15 114 -6 16 -9 37 -6 48 3 11 2 20 -3 20 -4 0 -12
37 -18 83 -17 122 -23 155 -34 173 -4 6 -9 21 -12 35 -11 59 -26 119 -37 145
-7 16 -13 34 -15 39 -7 29 -53 144 -67 170 -9 17 -24 46 -34 65 -10 19 -24 41
-30 48 -7 7 -13 19 -13 26 0 6 -9 18 -20 26 -14 10 -16 16 -7 22 8 5 7 8 -6 8
-9 0 -16 4 -15 8 3 10 -83 122 -94 122 -4 0 -5 7 -2 15 4 8 1 15 -5 15 -6 0
-11 -6 -11 -12 0 -7 -5 -5 -11 5 -5 9 -7 22 -4 27 3 5 0 7 -7 5 -9 -4 -33 22
-66 70 -29 41 -55 75 -57 75 -2 0 19 -36 46 -81 126 -203 177 -341 200 -543
12 -98 5 -296 -9 -296 -4 0 -8 53 -9 118 -1 67 -9 152 -18 197 -10 44 -21 96
-25 116 -4 20 -23 69 -43 109 -20 40 -34 77 -30 83 3 6 2 7 -4 4 -5 -4 -16 6
-24 21 -8 15 -23 38 -34 51 -34 43 -169 171 -180 171 -6 0 -16 9 -23 20 -13
22 -42 27 -42 8 0 -7 -5 -5 -11 5 -8 13 -14 15 -29 7 -10 -5 -28 -10 -39 -10
-11 0 -25 -9 -31 -20 -6 -11 -21 -20 -33 -21 -13 0 -37 -17 -57 -39 -19 -22
-52 -58 -72 -80 -21 -22 -38 -47 -38 -55 0 -26 -21 -61 -43 -70 -12 -6 -29
-25 -38 -42 -9 -18 -30 -47 -47 -64 -16 -17 -33 -46 -37 -65 -3 -19 -13 -38
-21 -41 -7 -3 -14 -13 -14 -22 0 -9 -13 -41 -30 -71 -16 -30 -38 -74 -48 -96
-11 -23 -25 -45 -31 -48 -6 -4 -9 -12 -6 -17 4 -5 1 -9 -4 -9 -6 0 -11 -5 -11
-12 0 -12 -51 -119 -61 -128 -3 -3 -16 -25 -30 -50 -13 -24 -32 -54 -41 -65
-9 -11 -25 -31 -36 -45 -44 -55 -29 -4 43 151 93 198 161 379 208 554 59 218
71 293 71 475 1 178 1 178 -70 433 -25 87 -49 181 -55 210 -20 105 -8 384 14
312 3 -11 13 -65 22 -119 9 -55 24 -118 34 -140 37 -84 102 -134 114 -88 4 14
5 14 6 -3 1 -22 43 -46 61 -35 9 5 5 33 -13 107 -31 122 -42 240 -31 330 8 64
9 58 15 -92 8 -206 37 -303 132 -447 70 -106 148 -207 160 -208 9 0 -20 43
-52 76 -11 12 -17 25 -14 28 4 3 2 6 -4 6 -6 0 -13 8 -16 18 -4 9 -14 28 -24
42 -10 13 -12 21 -5 16 18 -11 15 4 -5 27 -13 15 -14 18 -3 12 12 -7 12 -5 -1
11 -9 10 -25 46 -37 79 -64 184 -60 361 13 575 35 104 33 111 -21 60 -27 -26
-42 -36 -35 -23 14 27 14 56 1 48 -24 -15 29 78 58 103 21 16 45 15 88 -3z
m-6639 -122 c-3 -10 -5 -2 -5 17 0 19 2 27 5 18 2 -10 2 -26 0 -35z m245 13
c2 -19 0 -32 -4 -30 -8 5 -12 64 -4 64 2 0 6 -15 8 -34z m6175 -58 c-3 -8 -6
-5 -6 6 -1 11 2 17 5 13 3 -3 4 -12 1 -19z m2217 -108 c15 -6 33 -7 40 -3 6 3
8 3 4 -2 -8 -9 42 -52 55 -47 5 1 6 -2 2 -8 -3 -5 -2 -10 3 -10 5 0 9 -6 10
-12 0 -7 4 -46 8 -85 8 -84 0 -99 -53 -109 -27 -5 -33 -10 -27 -23 8 -19 17
-92 8 -74 -4 8 -23 6 -72 -8 -37 -10 -80 -19 -96 -19 -21 0 -27 -4 -22 -16 3
-8 2 -12 -4 -9 -9 5 -15 -15 -11 -37 0 -4 -5 -5 -13 -2 -9 3 -20 -7 -29 -26
-15 -30 -15 -31 4 -25 28 9 23 -10 -6 -23 -35 -16 -105 -16 -105 1 -1 6 -7 26
-16 42 -14 29 -14 28 -9 -32 3 -40 -1 -76 -10 -102 -12 -36 -12 -41 0 -41 8 0
15 -7 15 -15 0 -32 -113 -10 -143 28 -13 15 -20 18 -24 10 -7 -18 -50 -16 -57
3 -3 9 -6 46 -6 82 0 66 -1 67 -39 95 -35 24 -64 37 -48 20 4 -3 -2 -13 -13
-20 -11 -8 -18 -19 -15 -24 4 -5 1 -9 -4 -9 -6 0 -17 -16 -26 -36 -20 -49
-104 -148 -168 -198 -80 -63 -99 -96 -71 -124 20 -19 12 -25 -18 -13 -28 10
-73 66 -94 116 -20 49 -18 145 6 204 l19 50 -122 4 -122 3 127 2 c70 1 129 6
132 10 2 4 -52 6 -121 4 -126 -4 -284 10 -335 30 -26 9 -33 19 -29 41 0 4 -9
7 -20 7 -18 0 -19 2 -9 15 8 10 13 50 14 110 0 52 3 95 6 95 3 0 19 -26 35
-58 27 -52 35 -59 90 -81 54 -22 81 -25 285 -32 l225 -8 30 27 c16 15 23 18
15 8 -8 -11 32 19 90 65 58 47 122 97 142 111 21 13 35 28 30 33 -4 5 -2 5 5
2 6 -4 47 10 90 32 175 86 354 117 467 81z m-8600 -62 c7 -5 4 -8 -6 -8 -12 0
-18 7 -17 23 0 15 2 17 6 7 3 -8 11 -18 17 -22z m1206 -162 c0 -2 -9 -6 -20
-9 -11 -3 -20 -1 -20 4 0 5 9 9 20 9 11 0 20 -2 20 -4z m-40 -40 c0 -8 -8 -14
-17 -14 -10 0 -27 -2 -38 -6 -13 -5 -11 -2 5 7 14 9 28 13 32 11 5 -3 8 0 8 5
0 6 2 11 5 11 3 0 5 -6 5 -14z m-167 -118 c7 -20 -55 -101 -65 -86 -5 9 -11
10 -15 3 -5 -6 -14 -10 -20 -9 -7 1 -22 2 -33 3 -15 1 -20 8 -19 29 1 21 3 23
6 6 2 -12 13 -24 24 -27 16 -4 19 -2 15 10 -6 14 -4 14 11 2 14 -12 16 -12 11
1 -4 11 0 16 12 16 12 0 16 -6 12 -16 -3 -10 1 -9 15 5 11 11 19 23 16 28 -2
4 1 7 7 7 7 0 9 8 5 20 -7 21 10 29 18 8z m7637 -2 c0 -2 -30 -21 -67 -42 -38
-20 -79 -45 -92 -56 -13 -10 -28 -18 -34 -18 -16 0 38 39 111 80 65 37 82 44
82 36z m-8643 -78 c-3 -7 -5 -2 -5 12 0 14 2 19 5 13 2 -7 2 -19 0 -25z m6601
-68 c7 -11 9 -20 4 -20 -4 0 -13 9 -20 20 -7 11 -9 20 -4 20 4 0 13 -9 20 -20z
m24 -38 c-8 -25 -9 -23 -8 15 0 28 3 37 9 27 5 -8 4 -27 -1 -42z m1675 -24
c-3 -8 -6 -5 -6 6 -1 11 2 17 5 13 3 -3 4 -12 1 -19z m-8090 -20 c-3 -7 -5 -2
-5 12 0 14 2 19 5 13 2 -7 2 -19 0 -25z m615 -40 c-8 -8 -9 -4 -5 13 4 13 8
18 11 10 2 -7 -1 -18 -6 -23z m7272 -27 c3 -5 -1 -28 -9 -51 -8 -23 -12 -46
-9 -51 3 -5 0 -8 -8 -7 -7 2 -12 -5 -12 -14 1 -10 -2 -16 -6 -15 -4 1 -16 -7
-26 -18 -17 -19 -88 -65 -100 -65 -3 0 16 22 43 49 62 63 73 78 66 85 -4 3 -2
6 4 6 6 0 16 20 22 45 11 43 23 56 35 36z m-1254 -145 c0 -2 -7 -7 -16 -10 -8
-3 -12 -2 -9 4 6 10 25 14 25 6z m37 -18 c2 -19 0 -20 -8 -8 -8 11 -12 12 -16
3 -2 -7 -10 -13 -16 -13 -7 1 -1 10 12 20 28 24 26 25 28 -2z m128 -178 c10
-11 16 -20 13 -20 -3 0 -13 9 -23 20 -10 11 -16 20 -13 20 3 0 13 -9 23 -20z
m185 -164 c-7 -7 -13 -7 -20 0 -6 6 -3 10 10 10 13 0 16 -4 10 -10z m-6299
-55 c-1 -7 2 -10 7 -7 13 8 25 -25 13 -37 -5 -5 -12 -1 -16 13 -5 17 -10 19
-21 9 -11 -9 -14 -8 -14 5 0 9 5 16 10 16 6 0 10 7 10 15 0 9 -6 12 -15 9 -18
-7 -19 2 -2 20 10 12 14 10 21 -8 5 -11 8 -27 7 -35z m6375 -3 c0 -10 -1 -18
-2 -18 0 0 -8 8 -17 18 -15 16 -15 18 1 18 10 0 18 -8 18 -18z m939 -227 c52
-24 91 -66 110 -120 17 -49 20 -137 5 -146 -6 -4 -10 17 -10 55 0 66 -21 119
-63 158 -24 23 -84 42 -73 23 4 -5 -3 -12 -14 -16 -11 -3 -20 -13 -20 -21 0
-47 -82 -144 -121 -144 -8 0 -27 -6 -42 -12 -20 -10 -27 -20 -27 -43 0 -17 5
-36 12 -43 9 -9 9 -12 1 -12 -7 0 -15 5 -18 10 -4 6 -10 8 -14 6 -4 -3 -8 0
-9 7 -1 7 -6 38 -12 70 -26 142 59 247 200 247 32 0 71 -8 95 -19z m123 -16
c-3 -3 -9 2 -12 12 -6 14 -5 15 5 6 7 -7 10 -15 7 -18z m1062 -220 c0 -68 -24
-212 -37 -225 -14 -13 -14 -13 -4 7 6 12 14 50 18 85 6 56 5 61 -9 48 -8 -9
-21 -34 -29 -55 -7 -22 -19 -47 -26 -56 -7 -8 -13 -21 -13 -27 0 -12 -75 -76
-100 -85 -8 -3 2 -6 24 -6 l38 -1 -6 -66 c-3 -36 -11 -74 -16 -84 -5 -9 -6
-20 -3 -24 3 -3 -2 -6 -13 -7 -11 0 -14 -3 -6 -6 20 -8 -5 -33 -33 -33 -18 0
-24 -7 -29 -35 -4 -20 -11 -33 -15 -31 -10 7 -81 -15 -81 -24 0 -14 -56 -19
-113 -11 -31 4 -54 4 -51 -1 3 -4 0 -8 -5 -8 -6 0 -11 7 -11 15 0 8 -5 15 -11
15 -6 0 -8 15 -4 43 18 115 -39 244 -128 293 -27 14 -50 24 -51 22 -1 -1 -26
-50 -55 -108 -30 -58 -70 -123 -91 -146 -20 -22 -39 -45 -41 -50 -6 -14 -154
-134 -166 -134 -5 0 -26 -18 -46 -40 l-35 -40 -33 35 c-19 19 -39 35 -46 35
-7 0 -13 7 -13 16 0 8 5 12 10 9 12 -8 13 7 1 21 -14 15 -31 99 -31 151 0 115
51 215 140 276 27 18 32 37 15 50 -6 5 -4 7 5 4 8 -2 14 -10 12 -17 -1 -6 1
-10 5 -8 79 40 91 43 183 43 111 0 150 -5 168 -22 16 -15 36 -17 27 -3 -3 6
-1 10 5 10 7 0 10 -6 7 -14 -7 -17 39 -50 55 -40 6 4 8 3 5 -3 -4 -6 -1 -16 7
-22 11 -9 15 -6 20 14 3 13 37 56 74 95 70 73 94 81 108 38 6 -21 18 -21 79 1
17 5 71 23 120 39 50 17 117 41 150 56 71 30 75 31 75 11z m-350 -95 c-8 -5
-22 -9 -30 -9 -10 0 -8 3 5 9 27 12 43 12 25 0z m-767 -104 c4 -10 1 -13 -8
-9 -8 3 -12 9 -9 14 7 12 11 11 17 -5z m-6154 -42 c2 -2 -44 -4 -103 -4 -63 0
-105 4 -101 9 5 9 194 3 204 -5z m7208 -51 c-9 -34 -8 -52 7 -100 9 -32 19
-67 20 -78 6 -34 -8 -98 -22 -101 -7 -1 -8 0 -2 3 15 7 12 89 -7 170 -14 61
-14 79 -4 114 16 53 23 47 8 -8z m-7577 -67 c0 -26 -6 -18 -14 19 -5 22 -4 26
4 15 5 -8 10 -24 10 -34z m5437 -68 c-3 -7 -5 -2 -5 12 0 14 2 19 5 13 2 -7 2
-19 0 -25z m2056 -165 c-7 -2 -19 -2 -25 0 -7 3 -2 5 12 5 14 0 19 -2 13 -5z
m-3 -117 c0 -2 -9 -6 -20 -9 -11 -3 -18 -1 -14 4 5 9 34 13 34 5z m-59 -63
c17 -16 35 -27 40 -25 5 1 8 -2 7 -7 -4 -13 62 -92 73 -86 5 3 6 -1 3 -9 -3
-9 -2 -16 4 -16 16 0 106 -139 161 -248 142 -284 176 -447 188 -911 l6 -253
31 -14 31 -13 -29 -1 c-27 0 -28 -2 -22 -32 4 -24 3 -29 -4 -18 -7 11 -10 7
-11 -20 -1 -19 -1 -46 0 -60 1 -14 -1 -21 -5 -17 -4 4 -21 -34 -37 -85 -105
-333 -223 -565 -340 -668 -49 -43 -66 -44 -21 -1 89 85 220 313 285 496 76
216 101 374 101 639 0 291 -29 519 -89 711 -72 230 -245 506 -383 611 -27 21
-50 42 -50 46 0 17 32 7 61 -19z m-8281 -76 c41 -21 70 -74 69 -126 l-2 -46
-6 46 c-8 54 -24 78 -51 76 -10 -1 -17 -5 -14 -9 7 -11 -51 -87 -85 -112 -24
-18 -27 -25 -19 -40 9 -16 8 -16 -10 -7 -11 6 -30 23 -42 38 -18 23 -21 37
-16 83 7 77 8 80 19 73 6 -4 8 1 4 11 -5 14 -3 16 12 11 11 -3 22 -1 26 5 9
14 85 12 115 -3z m8463 -52 c-3 -9 -8 -14 -10 -11 -3 3 -2 9 2 15 9 16 15 13
8 -4z m-222 -103 c80 -98 129 -172 170 -260 42 -89 48 -103 67 -159 12 -38 8
-40 -36 -13 -18 11 -40 21 -50 21 -9 1 -3 4 15 8 32 6 32 7 19 36 -7 17 -21
57 -31 90 -21 73 -90 195 -110 195 -8 0 -15 6 -15 14 0 7 -6 18 -13 24 -20 17
-81 105 -70 101 6 -2 30 -28 54 -57z m-8278 -89 c-7 -2 -19 -2 -25 0 -7 3 -2
5 12 5 14 0 19 -2 13 -5z m8293 -130 c5 -17 3 -28 -4 -31 -19 -6 -14 -22 7
-22 35 0 34 -20 -3 -60 -32 -35 -50 -80 -27 -66 7 5 4 -19 -15 -97 -5 -20 -18
-32 -51 -47 -40 -18 -44 -23 -43 -52 5 -90 1 -118 -19 -118 -11 0 -22 6 -25
13 -3 6 -3 -2 0 -20 5 -28 3 -31 -16 -26 -12 3 -27 15 -35 27 -21 34 -38 168
-31 248 3 40 9 108 12 150 6 67 9 77 28 82 30 7 139 21 149 18 4 -1 18 4 30
13 30 21 36 19 43 -12z m-7649 -205 c-3 -7 -5 -2 -5 12 0 14 2 19 5 13 2 -7 2
-19 0 -25z m7658 -36 c-3 -3 -11 0 -18 7 -9 10 -8 11 6 5 10 -3 15 -9 12 -12z
m-7653 -31 c2 -17 1 -28 -4 -25 -8 5 -12 54 -4 54 2 0 6 -13 8 -29z m7638 -11
c0 -5 -2 -10 -4 -10 -3 0 -8 5 -11 10 -3 6 -1 10 4 10 6 0 11 -4 11 -10z
m-4704 -212 c9 -7 27 -23 40 -35 13 -12 24 -17 24 -10 0 13 41 -50 44 -68 1
-5 7 -19 13 -30 19 -35 51 -148 66 -233 12 -61 13 -97 6 -135 -5 -29 -15 -86
-23 -127 -9 -50 -17 -74 -26 -72 -9 2 -10 -5 -6 -23 4 -14 2 -24 -3 -23 -5 2
-20 -9 -34 -25 -15 -15 -41 -30 -59 -34 -18 -3 -37 -9 -43 -14 -10 -7 -164
-41 -197 -42 -10 -1 -18 -5 -18 -10 0 -4 -4 -6 -10 -2 -5 3 -18 0 -29 -7 -33
-20 -33 -5 -2 63 37 78 51 161 51 296 0 153 -31 341 -75 456 -19 47 -19 60 0
27 12 -21 14 -22 15 -6 0 12 5 16 15 13 8 -4 17 -2 21 4 3 6 12 8 20 5 8 -3
14 -1 14 4 0 6 10 10 23 10 12 1 36 7 52 15 38 17 101 19 121 3z m-510 -284
c15 -61 -21 -214 -51 -214 -18 0 -41 30 -64 84 -21 48 -21 49 -3 80 10 17 26
30 35 30 10 -1 17 4 17 10 0 39 57 48 66 10z m2645 -83 c-11 -7 -11 -10 3 -14
15 -5 15 -5 0 -3 -24 2 -30 26 -7 26 14 0 15 -2 4 -9z m-1026 -71 c-3 -5 -10
-10 -16 -10 -5 0 -9 5 -9 10 0 6 7 10 16 10 8 0 12 -4 9 -10z m925 -110 c0 -5
-4 -10 -10 -10 -5 0 -10 5 -10 10 0 6 5 10 10 10 6 0 10 -4 10 -10z m-2805
-179 c14 -52 40 -124 59 -161 l33 -67 -44 -12 c-25 -6 -91 -14 -147 -18 l-103
-6 -13 66 c-13 70 -7 149 15 204 7 17 44 56 82 87 l68 57 12 -28 c6 -15 23
-70 38 -122z m5535 -111 c0 -5 -2 -10 -4 -10 -3 0 -8 5 -11 10 -3 6 -1 10 4
10 6 0 11 -4 11 -10z m-9003 -222 c-2 -13 -4 -3 -4 22 0 25 2 35 4 23 2 -13 2
-33 0 -45z m6153 52 c0 -5 6 -10 13 -10 16 0 43 -25 77 -69 14 -19 33 -41 42
-49 13 -12 15 -18 5 -25 -9 -7 -9 -10 1 -14 6 -2 12 -12 12 -21 0 -15 2 -15
11 -2 9 13 10 12 5 -3 -3 -10 -2 -25 3 -35 25 -46 43 -98 71 -202 17 -63 60
-187 95 -275 74 -186 103 -274 145 -443 39 -158 67 -324 74 -437 l5 -90 -12
58 c-7 32 -15 56 -18 52 -6 -5 -20 44 -24 80 -3 22 -17 55 -24 55 -5 0 -6 11
-4 24 3 13 0 27 -6 30 -5 4 -8 13 -4 21 3 8 0 15 -7 15 -7 0 -10 7 -6 15 3 8
0 15 -5 15 -6 0 -9 9 -6 20 3 11 1 20 -5 20 -5 0 -6 5 -3 10 3 6 1 10 -5 10
-6 0 -8 5 -5 10 3 6 0 13 -9 16 -8 3 -12 12 -9 20 3 8 0 14 -6 14 -6 0 -8 6
-5 14 3 7 -2 16 -11 20 -9 3 -14 10 -10 15 3 5 1 12 -5 16 -5 3 -10 15 -10 25
0 14 -5 18 -17 13 -11 -4 -14 -3 -9 6 4 6 5 19 1 29 -5 14 -7 14 -15 2 -8 -13
-10 -13 -10 0 0 9 5 21 12 28 9 9 8 12 -5 12 -10 0 -14 5 -11 15 4 8 2 15 -4
15 -6 0 -13 -6 -15 -12 -3 -7 -4 2 -2 20 3 27 1 32 -12 28 -11 -5 -14 -2 -9
10 8 22 -21 74 -42 74 -15 0 -15 2 -2 10 10 7 11 10 2 10 -8 0 -11 9 -8 25 3
16 1 23 -5 19 -6 -3 -13 3 -16 15 -3 12 -9 21 -13 21 -5 0 -8 20 -8 45 0 25
-6 52 -12 60 -7 8 -10 15 -7 15 2 0 -1 17 -9 38 -7 20 -18 36 -25 34 -9 -2 -8
2 2 14 8 10 9 15 4 12 -6 -4 -21 13 -34 38 -13 24 -28 44 -33 44 -6 0 -7 7 -4
16 3 9 2 12 -5 9 -6 -4 -13 2 -16 14 -3 12 -10 21 -17 21 -7 0 -7 3 1 8 10 6
4 26 -23 77 -19 39 -33 78 -30 87 2 10 0 16 -4 13 -9 -6 -28 75 -32 140 -3 34
0 40 18 43 12 2 24 12 27 23 5 19 27 27 27 9z m1151 -7 c11 -15 11 -16 -1 -6
-11 10 -17 10 -29 0 -14 -11 -14 -10 -2 6 7 9 15 17 16 17 1 0 9 -8 16 -17z
m-751 -23 c0 -5 -4 -10 -10 -10 -5 0 -10 5 -10 10 0 6 5 10 10 10 6 0 10 -4
10 -10z m-5282 -135 c-3 -3 -9 2 -12 12 -6 14 -5 15 5 6 7 -7 10 -15 7 -18z
m-11 -67 c-3 -8 -6 -5 -6 6 -1 11 2 17 5 13 3 -3 4 -12 1 -19z m7693 -42 c0
-3 -4 -8 -10 -11 -5 -3 -10 -1 -10 4 0 6 5 11 10 11 6 0 10 -2 10 -4z m-4766
-76 c15 -5 25 -14 22 -19 -4 -5 -2 -11 3 -13 8 -3 17 -99 11 -120 -2 -5 -3
-12 -4 -17 -3 -21 -17 -23 -35 -7 -21 19 -37 50 -69 132 l-20 50 33 2 c18 1
45 -2 59 -8z m4686 -54 c-10 -13 -40 -12 -40 1 0 3 7 3 15 -1 8 -3 15 -1 15 4
0 6 5 10 11 10 8 0 8 -4 -1 -14z m-52 -46 c-7 -11 -15 -15 -17 -9 -2 6 3 15
10 20 20 12 21 11 7 -11z m-53 -39 c3 -5 2 -12 -3 -15 -5 -3 -9 1 -9 9 0 17 3
19 12 6z m-9052 -18 c-7 -2 -19 -2 -25 0 -7 3 -2 5 12 5 14 0 19 -2 13 -5z
m9297 -72 c0 -12 -57 -71 -110 -113 -66 -53 -192 -125 -242 -138 -24 -7 -47
-15 -53 -20 -5 -4 -26 -11 -45 -14 -34 -7 -34 -7 9 14 24 11 47 20 53 20 18 0
118 50 186 92 75 48 96 65 156 124 47 48 46 47 46 35z m-9233 -103 c-2 -18 -4
-6 -4 27 0 33 2 48 4 33 2 -15 2 -42 0 -60z m620 -10 c-2 -13 -4 -3 -4 22 0
25 2 35 4 23 2 -13 2 -33 0 -45z m-420 -5 c-3 -10 -5 -4 -5 12 0 17 2 24 5 18
2 -7 2 -21 0 -30z m1711 -64 c14 0 13 -2 -3 -9 -18 -8 -18 -9 -2 -9 15 -1 17
-10 15 -73 l-3 -73 -93 -1 c-51 0 -95 3 -98 8 -3 5 -3 26 1 46 7 35 8 35 15
12 l6 -25 7 28 c4 15 12 25 17 22 6 -3 10 -1 10 4 0 6 18 11 40 11 33 0 40 3
38 18 -2 9 -7 20 -11 23 -5 3 -2 9 6 12 12 4 14 -5 13 -51 l-1 -57 -47 0 c-57
0 -53 -14 5 -17 l42 -1 -45 -7 -45 -8 45 2 c27 0 45 6 45 13 0 6 3 15 8 19 4
4 8 39 8 78 1 39 3 63 6 54 2 -10 12 -18 21 -19z m-1928 -12 c0 -18 -2 -19
-10 -7 -13 20 -13 43 0 35 6 -3 10 -16 10 -28z m-1 -129 c1 -14 -7 -18 -36
-17 -31 0 -34 2 -18 9 17 8 16 9 -10 11 -28 2 -28 2 -5 6 14 3 29 10 33 17 6
7 7 5 3 -6 -3 -10 -1 -20 4 -23 6 -4 10 16 11 47 l1 53 9 -40 c4 -22 8 -48 8
-57z m1491 57 c0 -14 5 -25 10 -25 6 0 10 -11 10 -25 0 -24 -3 -25 -55 -25
-30 0 -55 5 -55 10 0 15 -77 12 -83 -2 -3 -8 -6 -6 -6 5 -1 14 8 17 47 19 l47
1 -49 6 c-32 4 -51 11 -53 21 -3 10 -2 11 4 4 4 -7 44 -14 88 -16 44 -3 67 -3
51 -1 l-28 4 23 25 c29 31 49 31 49 -1z m1465 -1 c55 -8 122 -17 148 -19 26
-3 56 -9 67 -15 10 -5 30 -10 45 -10 14 0 37 -7 51 -16 19 -13 22 -20 13 -30
-9 -11 -8 -14 2 -15 8 -1 -6 -5 -31 -10 -80 -14 -329 -10 -405 6 -39 9 -92 20
-120 25 -27 6 -51 15 -53 20 -2 6 -13 10 -25 11 -19 1 -18 3 8 14 25 12 27 14
8 15 -18 0 -24 16 -14 36 4 9 229 0 306 -12z m-2552 -13 c3 -13 1 -18 -9 -14
-7 2 -10 11 -7 19 7 19 10 18 16 -5z m-95 -54 l57 -3 -62 -2 c-63 -2 -63 -2
-62 26 1 22 2 23 6 5 4 -19 12 -23 61 -26z m-8 33 c-21 -7 -18 -8 20 -11 40
-2 41 -3 12 -6 -19 -3 -41 -2 -49 1 -20 8 -6 26 20 25 20 -1 20 -2 -3 -9z
m705 -13 l80 -3 -84 0 c-66 1 -85 4 -88 16 -3 11 -2 11 4 3 5 -7 42 -14 88
-16z m7738 13 c-13 -5 -46 -12 -75 -16 -29 -4 -58 -11 -65 -16 -7 -6 -18 -8
-25 -5 -8 4 -7 6 5 6 9 1 17 5 17 10 0 8 96 28 145 29 18 1 18 0 -2 -8z
m-7846 -32 c-3 -7 -5 -2 -5 12 0 14 2 19 5 13 2 -7 2 -19 0 -25z m-507 7 c0
-8 -4 -15 -10 -15 -5 0 -10 7 -10 15 0 8 5 15 10 15 6 0 10 -7 10 -15z m1583
0 c-3 -9 -8 -14 -10 -11 -3 3 -2 9 2 15 9 16 15 13 8 -4z m-990 -12 c-13 -2
-35 -2 -50 0 -16 2 -5 4 22 4 28 0 40 -2 28 -4z m5074 -8 c0 -8 -4 -12 -9 -9
-5 3 -6 10 -3 15 9 13 12 11 12 -6z m34 -8 c-10 -9 -11 -8 -5 6 3 10 9 15 12
12 3 -3 0 -11 -7 -18z m-6008 -37 c19 0 37 4 39 9 2 5 23 11 48 12 l45 4 0
-90 0 -90 -100 0 -100 0 -3 79 c-2 44 0 86 3 95 6 14 8 14 19 -1 8 -11 26 -18
49 -18z m1030 -17 l-2 -48 11 35 c11 34 11 35 18 10 8 -24 8 -24 9 -2 1 19 6
22 46 22 29 0 45 -4 46 -12 1 -7 4 -2 8 12 4 14 15 26 24 28 15 3 17 -7 17
-92 l0 -96 -95 0 c-93 0 -95 0 -101 26 -9 35 6 164 19 164 1 0 1 -21 0 -47z
m110 40 c-13 -2 -33 -2 -45 0 -13 2 -3 4 22 4 25 0 35 -2 23 -4z m321 -20 c-4
-27 -3 -27 4 -3 7 24 12 25 95 28 l87 3 0 -86 c0 -47 0 -88 0 -92 0 -5 -46 -8
-102 -8 -93 0 -103 2 -106 19 -6 29 9 166 17 166 5 0 7 -12 5 -27z m4566 7 c0
-5 -2 -10 -4 -10 -3 0 -8 5 -11 10 -3 6 -1 10 4 10 6 0 11 -4 11 -10z m-5245
-158 c-3 -10 -30 -13 -105 -11 l-100 1 1 62 c1 55 2 58 12 34 11 -27 13 -28
88 -28 84 0 88 3 90 63 1 18 6 1 10 -38 5 -38 7 -75 4 -83z m7692 54 l6 -66
-102 0 -101 0 0 64 0 64 75 7 c41 3 79 4 85 0 5 -3 10 -1 10 6 0 10 3 10 11 2
6 -6 14 -41 16 -77z m-7938 37 c2 64 21 31 21 -38 l0 -63 -102 1 -103 2 -2 50
c-1 28 0 44 3 38 7 -15 84 -18 84 -3 0 6 18 10 40 10 34 0 40 3 41 23 1 12 5
4 9 -18 l7 -40 2 38z m8902 -27 c6 -6 9 -4 9 5 0 12 13 16 52 18 29 1 56 7 60
14 5 7 8 0 9 -18 0 -24 2 -26 8 -11 7 18 8 18 14 -5 4 -13 7 -34 7 -46 0 -20
-5 -23 -39 -23 -21 0 -66 -3 -100 -6 -70 -8 -69 -9 -49 78 9 40 13 47 16 28 2
-14 8 -29 13 -34z m-321 22 c37 3 50 0 50 -10 1 -9 5 -7 14 5 12 16 14 16 20
1 3 -8 6 -33 6 -55 l0 -39 -80 0 -80 0 0 29 c0 38 13 100 17 81 3 -11 15 -14
53 -12z m-2831 -14 c10 -9 -56 -3 -69 7 -11 7 -4 8 25 3 22 -4 42 -8 44 -10z
m118 -21 c-3 -5 -23 -7 -44 -4 l-38 5 40 6 c44 6 49 5 42 -7z m-112 -13 c13
-6 15 -9 5 -9 -8 0 -22 4 -30 9 -18 12 -2 12 25 0z m-10 -20 c18 -8 18 -9 -5
-9 -14 0 -34 4 -45 9 -18 8 -18 9 5 9 14 0 34 -4 45 -9z m-5937 -134 c4 -107
9 -101 -96 -105 -102 -3 -102 -4 -102 98 0 48 3 91 7 94 3 4 47 7 97 7 l91 0
3 -94z m660 -9 l3 -98 -103 3 -103 3 -3 84 c-2 46 0 90 2 98 4 11 28 13 103
11 l98 -3 3 -98z m2062 18 c9 -6 11 -4 5 6 -6 11 -5 12 6 2 7 -7 23 -13 34
-13 12 0 32 -9 45 -20 13 -11 26 -20 30 -20 4 0 20 -11 35 -24 16 -14 32 -23
37 -20 4 3 17 -10 28 -29 12 -19 32 -38 45 -41 13 -3 27 -15 30 -26 3 -11 11
-20 17 -20 7 0 33 -22 59 -50 26 -27 52 -50 58 -50 6 0 17 -13 26 -30 9 -16
22 -30 30 -30 16 0 59 -40 75 -70 5 -10 10 -30 10 -44 0 -23 -4 -26 -34 -26
-42 0 -138 39 -129 53 3 6 1 7 -6 3 -13 -8 -44 12 -36 24 2 4 -7 12 -21 19
-18 8 -24 17 -20 27 5 13 1 15 -21 9 -22 -5 -25 -4 -16 6 16 16 -2 51 -25 48
-9 -1 -25 1 -35 6 -15 6 -16 10 -5 16 10 7 9 9 -4 9 -10 0 -18 4 -18 10 0 5
-22 25 -49 42 -27 18 -55 46 -63 63 -7 16 -22 32 -33 34 -18 3 -145 125 -145
140 0 9 75 6 90 -4z m3122 -367 c-27 -35 -67 -90 -88 -123 -21 -33 -42 -61
-46 -63 -5 -2 -8 -14 -8 -27 0 -13 -4 -27 -10 -30 -14 -8 -12 34 3 67 13 27
183 238 193 238 3 0 -17 -28 -44 -62z m-2539 -17 c-4 -17 -8 -19 -14 -9 -12
18 -11 31 1 23 6 -3 10 -1 10 6 0 7 2 10 5 8 2 -3 2 -15 -2 -28z m-249 -70
c63 -57 161 -131 173 -131 6 0 13 -3 15 -8 3 -6 119 -79 183 -114 11 -6 36
-13 55 -15 60 -5 69 -7 68 -13 -2 -13 15 -40 26 -40 7 0 35 -7 63 -15 43 -13
50 -18 46 -35 -6 -22 -5 -23 82 -25 33 0 96 -11 140 -23 106 -30 176 -41 390
-62 140 -14 164 -18 107 -19 -54 -1 -74 -5 -78 -16 -4 -8 -15 -15 -26 -15 -11
0 -26 -7 -34 -15 -9 -8 -24 -15 -34 -15 -11 0 -43 -9 -72 -19 -29 -11 -69 -23
-88 -26 -19 -4 -39 -11 -45 -15 -10 -6 -119 -34 -141 -35 -6 0 -18 -7 -27 -16
-8 -9 -44 -21 -79 -28 -35 -7 -81 -16 -103 -21 -22 -5 -62 -12 -90 -16 -27 -3
-58 -10 -67 -15 -10 -5 -75 -12 -145 -15 -157 -7 -148 -7 -263 0 -52 3 -212 5
-355 4 -398 -2 -379 -1 -399 -20 -28 -29 -32 -21 -5 10 14 15 66 81 116 147
49 66 123 165 164 220 42 55 102 135 135 179 62 82 110 147 170 233 42 59 45
59 118 -6z m258 23 c-7 -12 -11 -13 -17 -4 -4 7 -2 16 6 21 18 11 23 4 11 -17z
m106 -69 c-3 -3 -9 2 -12 12 -6 14 -5 15 5 6 7 -7 10 -15 7 -18z m32 -50 c0
-5 -5 -3 -10 5 -5 8 -10 20 -10 25 0 6 5 3 10 -5 5 -8 10 -19 10 -25z m3077
-67 c-3 -7 -5 -2 -5 12 0 14 2 19 5 13 2 -7 2 -19 0 -25z m-3042 -68 c-3 -5
-12 -10 -18 -10 -7 0 -6 4 3 10 19 12 23 12 15 0z m3110 -112 c14 -29 19 -44
10 -34 -8 11 -15 24 -15 29 0 5 -7 6 -16 3 -13 -5 -15 -1 -12 18 3 17 1 23 -8
19 -8 -3 -11 2 -7 15 2 11 0 23 -6 26 -6 4 -11 15 -11 24 0 20 26 -21 65 -100z
m1018 22 c-3 -12 -8 -19 -11 -16 -5 6 5 36 12 36 2 0 2 -9 -1 -20z m-25 -29
c7 -21 14 -60 17 -87 4 -42 4 -45 -5 -19 -5 16 -11 42 -14 56 -2 14 -9 36 -15
47 -13 25 -14 42 -3 42 5 0 14 -17 20 -39z m-895 -88 c-3 -105 -13 -161 -24
-141 -14 25 -13 176 1 193 22 26 26 17 23 -52z m-2336 -79 c-3 -3 -12 -4 -19
-1 -8 3 -5 6 6 6 11 1 17 -2 13 -5z m1743 -98 c0 -2 -9 -6 -20 -9 -11 -3 -18
-1 -14 4 5 9 34 13 34 5z m2870 -246 c0 -5 -4 -10 -10 -10 -5 0 -10 5 -10 10
0 6 5 10 10 10 6 0 10 -4 10 -10z m-4631 -412 c16 2 55 -4 87 -13 47 -13 58
-14 65 -3 6 8 9 0 9 -24 l0 -37 -92 -3 c-51 -2 -99 -2 -105 0 -14 4 -17 53 -6
92 7 23 8 23 11 4 2 -16 9 -20 31 -16z m1701 -23 c8 -9 8 -15 2 -15 -20 0 -73
-52 -93 -91 -11 -22 -24 -39 -29 -39 -6 0 -10 23 -10 51 0 43 5 55 29 80 33
32 80 39 101 14z m-1247 -52 c-13 -2 -33 -2 -45 0 -13 2 -3 4 22 4 25 0 35 -2
23 -4z"/>
<path d="M6828 7915 c6 -11 21 -29 34 -40 22 -19 22 -19 -2 10 -40 48 -43 51
-32 30z"/>
<path d="M8810 8665 c-11 -13 -11 -18 0 -28 10 -10 11 -9 6 3 -4 8 2 5 13 -8
12 -14 18 -33 16 -50 -2 -15 -4 -30 -4 -35 -2 -16 -93 -66 -109 -59 -15 5 -15
4 -3 -11 10 -13 23 -15 55 -11 56 9 86 29 86 59 0 38 -20 121 -34 140 -11 16
-13 16 -26 0z"/>
<path d="M8440 8595 c-89 -24 -155 -46 -186 -63 -39 -22 -88 -42 -99 -42 -7 0
-27 -14 -44 -32 -17 -17 -31 -28 -31 -23 0 4 -8 -2 -19 -13 -10 -12 -23 -22
-29 -22 -7 0 -9 -7 -5 -17 5 -13 3 -15 -13 -9 -12 4 -15 4 -9 -2 19 -18 61
-21 89 -7 35 18 47 19 24 1 -15 -11 -12 -16 30 -49 26 -19 49 -33 52 -31 3 3
-3 10 -13 15 -9 6 -17 15 -17 21 0 6 7 5 17 -3 15 -12 16 -12 10 3 -4 12 -2
15 9 11 7 -3 14 0 14 6 0 21 93 112 167 163 78 54 97 74 37 39 -20 -12 -38
-20 -40 -18 -7 7 82 58 118 68 36 9 62 30 36 28 -7 0 -51 -11 -98 -24z m-270
-168 c0 -2 -10 -12 -22 -23 l-23 -19 19 23 c18 21 26 27 26 19z"/>
<path d="M9118 6408 c6 -6 18 -8 28 -6 14 3 12 5 -9 10 -19 3 -25 2 -19 -4z"/>
<path d="M1885 3410 c3 -5 8 -10 11 -10 2 0 4 5 4 10 0 6 -5 10 -11 10 -5 0
-7 -4 -4 -10z"/>
<path d="M143 3280 c0 -47 2 -66 4 -42 2 23 2 61 0 85 -2 23 -4 4 -4 -43z"/>
<path d="M1380 3338 c0 -19 2 -20 10 -8 13 19 13 30 0 30 -5 0 -10 -10 -10
-22z"/>
<path d="M375 3150 c-3 -5 -1 -10 4 -10 6 0 11 5 11 10 0 6 -2 10 -4 10 -3 0
-8 -4 -11 -10z"/>
<path d="M4077 2329 c7 -7 15 -10 18 -7 3 3 -2 9 -12 12 -14 6 -15 5 -6 -5z"/>
<path d="M4174 2269 c-3 -6 -1 -16 5 -22 8 -8 11 -5 11 11 0 24 -5 28 -16 11z"/>
<path d="M5660 9160 c0 -92 -23 -301 -35 -322 -5 -9 -5 -10 2 -3 5 6 29 56 53
113 47 114 47 125 5 234 l-24 63 -1 -85z"/>
<path d="M5727 9165 c3 -33 7 -62 9 -64 7 -8 2 74 -6 99 -5 16 -6 2 -3 -35z"/>
<path d="M4395 9189 c-229 -14 -573 -65 -825 -124 -36 -8 -101 -22 -145 -31
-44 -8 -118 -24 -165 -36 -48 -12 -123 -21 -172 -22 -77 -1 -84 -2 -62 -14 13
-7 24 -15 24 -17 0 -3 -26 -4 -58 -3 -31 1 -77 -6 -102 -14 -25 -9 -97 -33
-160 -53 -63 -20 -135 -47 -160 -59 -25 -12 -64 -28 -87 -36 -24 -7 -43 -18
-43 -23 0 -5 -9 -7 -20 -4 -11 3 -20 1 -20 -3 0 -4 -10 -6 -22 -4 -13 3 -3 -6
21 -19 l45 -24 -55 -1 c-56 -1 -93 -7 -289 -42 -257 -45 -312 -61 -341 -96
-12 -16 -12 -17 4 -11 10 4 37 9 60 12 38 4 37 3 -11 -9 -29 -8 -67 -20 -83
-27 -17 -6 -45 -12 -62 -11 -22 1 -27 -2 -17 -8 8 -5 -18 -6 -64 -3 -59 5 -77
3 -72 -5 4 -7 19 -12 33 -12 24 0 24 -1 -13 -32 -84 -74 -146 -145 -133 -154
6 -3 3 -17 -7 -32 -135 -206 -168 -289 -162 -412 6 -112 30 -160 145 -286 40
-44 87 -77 189 -132 49 -27 98 -54 109 -60 60 -33 333 -165 410 -198 50 -21
104 -45 120 -54 268 -146 906 -433 923 -415 4 3 7 81 7 173 1 92 7 195 14 230
9 50 10 67 0 78 -6 8 -9 17 -5 21 3 3 6 1 6 -5 0 -7 5 -12 10 -12 6 0 10 9 10
20 0 48 65 197 163 374 50 88 260 304 369 376 36 25 65 47 63 51 -2 3 1 6 8 6
7 0 43 18 81 41 l70 40 -45 21 c-43 20 -206 71 -225 71 -5 0 -27 9 -49 20 -22
11 -48 20 -58 20 -11 0 -67 16 -126 36 -58 19 -133 41 -166 49 -33 7 -50 13
-39 14 29 1 181 -38 452 -118 79 -23 146 -40 150 -37 3 3 -9 11 -26 17 -18 6
-32 15 -32 19 0 5 -15 11 -32 15 -42 9 -128 48 -128 57 0 5 -9 8 -21 8 -13 0
-18 4 -13 11 5 9 -1 10 -20 5 -15 -4 -25 -3 -23 1 3 5 -25 19 -61 32 -37 13
-78 30 -91 38 -13 8 -55 26 -94 39 -40 13 -89 36 -110 50 -49 32 -87 48 -111
45 -10 -2 -15 2 -12 7 3 5 -7 12 -22 15 -23 4 -160 38 -307 75 l-40 10 40 1
c56 1 212 -36 645 -157 91 -25 180 -45 198 -45 18 0 28 -3 23 -7 -6 -3 42 -23
105 -43 63 -21 119 -35 126 -31 7 5 8 3 3 -6 -6 -10 -4 -12 8 -7 10 3 17 3 17
-2 0 -4 19 -13 43 -20 23 -7 81 -28 130 -47 146 -56 206 -48 198 26 -2 12 0
13 7 1 6 -7 15 -10 21 -7 6 4 11 2 11 -3 0 -6 -7 -11 -15 -11 -8 0 -15 -4 -15
-9 0 -5 15 -5 35 1 19 6 32 15 29 20 -3 4 2 8 10 8 25 0 20 -1 216 67 102 36
205 71 230 78 143 40 334 109 351 126 11 11 23 18 27 15 5 -3 14 0 22 6 13 8
13 9 -1 5 -9 -3 -16 1 -16 8 0 10 7 11 24 4 24 -9 34 5 11 15 -7 3 1 3 17 0
20 -4 26 -3 17 4 -11 7 -11 10 3 16 9 3 14 9 11 14 -2 4 4 8 15 8 18 0 18 -2
5 -12 -9 -6 -16 -14 -16 -18 0 -11 90 56 105 78 8 10 11 25 8 34 -5 11 -2 14
9 10 10 -4 23 5 38 24 13 17 18 28 11 24 -6 -4 -11 -2 -11 5 0 9 -3 9 -14 0
-10 -8 -16 -9 -21 -1 -8 13 20 42 30 32 5 -4 5 1 2 11 -4 10 -3 16 1 13 5 -3
21 2 36 10 l28 14 -16 -25 c-24 -36 -19 -45 5 -10 27 40 66 125 95 209 l24 68
-30 -6 c-20 -3 -29 -2 -27 6 3 16 -70 36 -200 53 -141 18 -679 27 -888 14z
m869 -98 c-12 -5 -154 -10 -315 -10 -347 -1 -678 -16 -842 -40 -65 -9 -120
-14 -122 -10 -10 14 345 51 590 62 181 7 707 5 689 -2z m254 -6 c3 -3 -42 -5
-99 -5 -60 0 -98 4 -91 9 14 8 181 5 190 -4z m-1618 -72 c-265 -51 -340 -67
-390 -83 -32 -10 -100 -28 -153 -39 -52 -11 -126 -32 -163 -45 -60 -22 -65
-23 -48 -6 29 30 442 131 724 178 88 15 112 11 30 -5z m1407 -195 c-3 -8 -6
-5 -6 6 -1 11 2 17 5 13 3 -3 4 -12 1 -19z m-2222 -18 c-3 -5 -12 -10 -18 -10
-7 0 -6 4 3 10 19 12 23 12 15 0z m2243 -9 c10 -6 9 -13 -7 -32 -18 -22 -20
-22 -26 -6 -8 19 0 47 12 47 4 0 14 -4 21 -9z m30 -21 c-7 -10 -14 -18 -15
-16 -6 6 9 36 18 36 5 0 4 -9 -3 -20z m-2348 -14 c0 -2 -7 -7 -16 -10 -8 -3
-12 -2 -9 4 6 10 25 14 25 6z m2299 -48 c-5 -10 -11 -18 -12 -18 -2 0 -3 8 -4
18 -1 10 5 19 12 19 10 0 11 -5 4 -19z m-2373 4 c-8 -14 -127 -84 -132 -79 -3
2 23 23 58 45 62 40 84 50 74 34z m-269 -78 c-3 -3 -12 -4 -19 -1 -8 3 -5 6 6
6 11 1 17 -2 13 -5z m-266 -114 c215 -33 468 -84 559 -114 72 -24 10 -19 -110
8 -58 13 -145 33 -195 44 -49 11 -117 23 -150 26 -33 4 -108 14 -166 23 l-106
16 -39 -31 c-34 -26 -114 -59 -114 -46 0 12 67 63 78 59 7 -3 10 0 7 5 -8 13
30 29 71 29 17 1 91 -8 165 -19z m-641 -130 c0 -5 -5 -10 -11 -10 -5 0 -7 5
-4 10 3 6 8 10 11 10 2 0 4 -4 4 -10z m1360 -21 c30 -6 57 -13 60 -16 9 -10
-104 9 -139 23 -34 13 -34 14 -6 9 17 -3 55 -10 85 -16z m-1430 1 c0 -5 -8
-10 -17 -10 -15 0 -16 2 -3 10 19 12 20 12 20 0z m-55 -32 c-10 -6 -54 -35
-97 -64 -43 -30 -78 -50 -78 -46 0 12 63 58 117 86 28 14 55 31 58 36 4 6 10
8 13 5 4 -4 -2 -11 -13 -17z m2642 -34 c-3 -3 -12 -4 -19 -1 -8 3 -5 6 6 6 11
1 17 -2 13 -5z m-2846 -132 c-12 -17 -21 -34 -21 -40 0 -5 -7 -15 -15 -22 -14
-12 -14 -15 1 -31 15 -16 13 -17 -24 -12 -36 5 -40 3 -62 -33 -13 -22 -24 -41
-25 -44 0 -3 -8 -21 -17 -40 -9 -19 -19 -46 -21 -60 -3 -17 -5 -13 -6 14 -1
48 57 171 107 222 18 19 22 20 22 6 0 -13 4 -12 19 8 11 13 17 28 15 32 -3 4
1 8 9 8 8 0 18 7 21 16 4 9 9 14 12 11 4 -3 -3 -19 -15 -35z m218 24 c15 -10
44 -66 37 -74 -3 -3 -6 0 -6 6 0 6 -12 23 -26 37 -25 25 -27 25 -45 9 -10 -9
-19 -29 -19 -43 l0 -25 -15 21 c-13 18 -13 26 -3 43 7 11 16 20 21 20 4 0 6 4
3 9 -7 10 35 8 53 -3z m-79 -10 c0 -2 -7 -7 -16 -10 -8 -3 -12 -2 -9 4 6 10
25 14 25 6z m-44 -71 c2 -14 0 -25 -5 -25 -6 0 -13 -16 -17 -35 -3 -19 -10
-32 -15 -29 -5 3 -9 -3 -9 -12 0 -22 -48 -104 -60 -104 -25 0 6 114 60 220 19
37 24 41 32 26 5 -9 11 -28 14 -41z m-159 -141 c3 -9 0 -20 -8 -25 -11 -7 -9
-9 6 -9 16 0 17 -2 5 -9 -8 -6 -18 -7 -24 -4 -5 3 -6 2 -3 -4 3 -5 -1 -29 -9
-53 -29 -85 -35 -136 -18 -176 8 -20 13 -38 11 -41 -3 -2 -15 22 -27 54 -22
56 -22 61 -8 133 25 123 57 180 75 134z m-20 -126 c-3 -8 -6 -5 -6 6 -1 11 2
17 5 13 3 -3 4 -12 1 -19z m691 -5 c-16 -2 -28 -8 -28 -12 0 -10 83 -31 123
-31 31 0 226 -46 236 -55 12 -13 -9 -12 -59 1 -65 17 -90 18 -90 3 0 -5 -5 -7
-10 -4 -6 4 -8 10 -5 15 3 5 -20 14 -51 21 -52 12 -58 11 -99 -11 -43 -23 -44
-24 -64 -5 -12 10 -21 24 -21 30 0 21 -49 27 -83 10 -17 -9 -51 -18 -74 -20
-42 -4 -114 -35 -144 -62 -15 -12 -16 -11 -11 12 8 42 90 91 174 103 56 8 253
13 206 5z m-405 -137 c-5 -23 -39 -36 -98 -36 -17 0 -17 2 -5 10 8 5 26 10 39
10 13 0 21 3 17 7 -3 4 6 12 21 19 16 7 29 13 29 13 1 1 -1 -10 -3 -23z m749
-8 c-7 -7 -12 -8 -12 -2 0 14 12 26 19 19 2 -3 -1 -11 -7 -17z m844 -285 c-8
-15 -15 -25 -16 -21 0 12 23 58 27 54 3 -2 -2 -17 -11 -33z m-34 -75 c-5 -7
-12 -24 -15 -38 -4 -22 -4 -21 -6 7 -1 26 6 38 28 42 2 1 -1 -5 -7 -11z m-54
-233 c-3 -3 -9 2 -12 12 -6 14 -5 15 5 6 7 -7 10 -15 7 -18z"/>
<path d="M5307 8783 c-4 -3 -7 -11 -7 -17 0 -6 5 -5 12 2 6 6 9 14 7 17 -3 3
-9 2 -12 -2z"/>
<path d="M1708 8543 c7 -3 16 -2 19 1 4 3 -2 6 -13 5 -11 0 -14 -3 -6 -6z"/>
<path d="M4664 8104 c-18 -14 -18 -15 4 -4 12 6 22 13 22 15 0 8 -5 6 -26 -11z"/>
<path d="M4361 7880 c-13 -11 -19 -20 -14 -20 6 0 18 9 28 20 23 25 17 25 -14
0z"/>
<path d="M4279 7793 l-24 -28 28 24 c25 23 32 31 24 31 -2 0 -14 -12 -28 -27z"/>
<path d="M4180 7683 c-97 -122 -208 -332 -249 -468 -25 -85 -58 -248 -67 -338
-6 -61 -9 -66 -33 -70 -14 -2 6 -5 44 -5 l70 -2 0 163 c1 170 16 263 66 397
43 115 134 272 209 363 18 20 30 37 27 37 -3 0 -33 -35 -67 -77z"/>
<path d="M1790 7200 c6 -4 -16 -12 -49 -19 -34 -7 -61 -16 -61 -22 0 -5 -9 -9
-21 -9 -77 0 91 -87 396 -204 66 -26 147 -58 180 -72 78 -34 145 -60 222 -89
34 -12 60 -24 58 -27 -3 -3 32 -13 77 -23 113 -24 183 -43 246 -66 67 -24 89
-24 147 1 l48 20 -27 25 c-15 14 -39 28 -54 32 -15 3 -55 19 -89 35 -34 15
-64 28 -68 28 -4 0 -55 23 -112 52 -58 28 -112 51 -119 51 -8 0 -14 3 -14 7 0
3 -24 17 -52 29 -29 12 -64 29 -78 37 -14 8 -50 26 -80 40 -30 14 -89 42 -130
63 -41 22 -94 45 -117 52 -24 7 -43 16 -43 22 0 5 -7 7 -15 4 -8 -4 -17 -2
-19 2 -7 11 -101 28 -195 35 -23 2 -38 0 -31 -4z"/>
<path d="M4510 6760 c-8 -5 -10 -10 -5 -10 6 0 17 5 25 10 8 5 11 10 5 10 -5
0 -17 -5 -25 -10z"/>
<path d="M4358 6753 c7 -3 16 -2 19 1 4 3 -2 6 -13 5 -11 0 -14 -3 -6 -6z"/>
<path d="M4400 6748 c0 -5 21 -8 47 -8 25 0 43 3 40 6 -9 10 -87 11 -87 2z"/>
<path d="M3045 6700 c-3 -6 1 -7 9 -4 18 7 21 14 7 14 -6 0 -13 -4 -16 -10z"/>
<path d="M3688 6691 c-1 -5 -78 -18 -169 -30 -235 -30 -319 -51 -432 -107 -16
-8 -37 -14 -48 -14 -10 0 -19 -4 -19 -8 0 -4 -16 -14 -35 -21 -19 -7 -48 -23
-64 -37 -16 -13 -34 -23 -39 -22 -5 2 -21 -9 -35 -24 -14 -16 -34 -28 -44 -28
-10 0 -35 -16 -55 -35 -20 -19 -41 -35 -46 -35 -16 0 -82 -71 -83 -88 0 -11
-2 -12 -6 -4 -2 6 -10 12 -15 12 -6 0 -9 -3 -6 -6 4 -3 1 -20 -6 -37 -14 -35
-10 -140 5 -131 5 3 9 -1 9 -9 0 -8 7 -21 16 -28 15 -12 16 -11 10 11 -4 14
-4 20 1 13 5 -7 32 -11 67 -10 47 1 54 3 33 10 -21 7 -24 11 -14 22 9 9 14 10
19 1 4 -6 8 1 8 17 0 16 4 26 9 23 5 -3 12 1 15 10 3 8 10 12 16 9 5 -3 10 1
10 9 0 21 35 38 65 30 15 -4 25 -2 25 5 0 6 7 11 15 11 8 0 15 4 15 9 0 6 -17
8 -37 6 -32 -4 -34 -3 -13 4 14 5 43 9 65 10 22 1 53 8 69 16 15 8 32 12 37 9
5 -3 9 3 9 12 0 14 3 15 12 6 14 -14 32 -16 24 -3 -3 5 4 12 17 16 26 8 117 6
132 -3 5 -4 21 -5 34 -3 14 2 21 -1 17 -8 -4 -7 -1 -8 8 -5 9 3 13 11 9 17 -4
6 -1 7 6 2 7 -4 23 -3 34 3 12 5 38 15 57 22 46 16 91 36 164 72 32 15 60 27
62 25 5 -4 -128 -77 -279 -152 -64 -32 -115 -60 -113 -62 6 -6 437 205 458
224 32 29 59 157 29 138 -7 -4 -5 13 13 115 3 19 3 29 0 22 -4 -9 -9 -10 -19
-2 -8 6 -14 7 -17 1z m-431 -393 c-3 -8 -6 -5 -6 6 -1 11 2 17 5 13 3 -3 4
-12 1 -19z m-530 -180 c-3 -8 -6 -5 -6 6 -1 11 2 17 5 13 3 -3 4 -12 1 -19z
m-57 -48 c0 -5 -5 -10 -11 -10 -5 0 -7 5 -4 10 3 6 8 10 11 10 2 0 4 -4 4 -10z"/>
<path d="M1882 6460 c0 -14 2 -19 5 -12 2 6 2 18 0 25 -3 6 -5 1 -5 -13z"/>
<path d="M3087 6143 c-59 -25 -106 -48 -104 -50 4 -3 184 68 213 86 39 22 -5
8 -109 -36z"/>
<path d="M2562 6100 c0 -14 2 -19 5 -12 2 6 2 18 0 25 -3 6 -5 1 -5 -13z"/>
<path d="M2845 6049 c-80 -28 -126 -38 -170 -38 -65 -1 -75 3 -94 34 -11 18
-11 18 -5 -5 11 -42 24 -50 78 -50 34 0 93 14 179 44 71 25 131 47 135 50 10
11 -11 5 -123 -35z"/>
<path d="M3140 6040 c-21 -7 -18 -8 21 -9 40 -1 47 -5 58 -28 18 -39 81 -295
75 -305 -3 -4 -58 -53 -122 -107 -64 -55 -175 -154 -247 -222 -126 -119 -205
-179 -233 -179 -7 0 -10 4 -7 10 3 5 0 7 -9 4 -21 -8 -89 47 -73 59 8 6 6 7
-5 3 -19 -6 -71 54 -135 157 -36 56 -43 46 -14 -18 22 -48 183 -231 211 -240
45 -14 92 17 244 163 83 79 211 196 283 259 94 81 133 120 133 136 0 42 -62
277 -78 297 -20 23 -66 32 -102 20z"/>
<path d="M3014 5984 c-18 -14 -18 -15 4 -4 12 6 22 13 22 15 0 8 -5 6 -26 -11z"/>
<path d="M2489 5563 c-13 -16 -12 -17 4 -4 9 7 17 15 17 17 0 8 -8 3 -21 -13z"/>
<path d="M2454 5515 c-9 -14 -15 -27 -13 -30 3 -2 12 10 21 26 21 36 15 39 -8
4z"/>
<path d="M2460 5476 c0 -8 4 -17 9 -20 5 -4 7 3 4 14 -6 23 -13 26 -13 6z"/>
<path d="M5615 5420 c3 -5 10 -10 16 -10 5 0 9 5 9 10 0 6 -7 10 -16 10 -8 0
-12 -4 -9 -10z"/>
<path d="M3155 5318 c-91 -94 -221 -255 -212 -264 3 -3 15 11 27 31 12 20 25
34 28 31 8 -9 -48 -77 -59 -71 -11 7 -28 -35 -22 -52 7 -17 94 -48 189 -68 92
-19 97 -16 108 63 15 118 37 385 32 390 -3 3 -6 -4 -6 -15 0 -11 -11 -36 -24
-56 -13 -19 -22 -38 -19 -41 3 -2 -5 -2 -18 1 -12 4 -20 2 -16 -3 3 -5 -12
-22 -34 -38 -21 -17 -39 -33 -39 -38 0 -4 -6 -8 -14 -8 -8 0 -18 -9 -21 -20
-4 -11 -10 -18 -15 -15 -5 3 -11 -4 -15 -15 -4 -11 -11 -18 -16 -15 -15 10 41
82 148 193 54 56 96 102 93 102 -3 0 -46 -42 -95 -92z"/>
<path d="M2555 5360 c-4 -6 -11 -8 -16 -5 -16 11 -10 -12 8 -26 15 -12 16 -12
11 2 -4 9 -1 22 5 28 6 6 8 11 5 11 -4 0 -10 -5 -13 -10z"/>
<path d="M1844 5339 c-4 -7 -3 -9 3 -6 7 4 11 -23 12 -79 1 -46 6 -96 11 -109
5 -14 6 -25 2 -25 -4 0 -8 -18 -9 -40 0 -22 1 -40 3 -40 2 0 8 19 14 43 7 23
25 70 42 105 16 34 28 66 26 70 -2 4 -24 27 -50 50 -32 30 -49 39 -54 31z"/>
<path d="M2578 5323 c7 -3 16 -2 19 1 4 3 -2 6 -13 5 -11 0 -14 -3 -6 -6z"/>
<path d="M2624 5263 c20 -22 28 -25 38 -15 9 9 8 12 -9 12 -11 0 -23 7 -27 15
-3 8 -10 15 -16 15 -6 0 1 -12 14 -27z"/>
<path d="M2647 5279 c7 -7 15 -10 18 -7 3 3 -2 9 -12 12 -14 6 -15 5 -6 -5z"/>
<path d="M2725 5260 c3 -5 8 -10 11 -10 2 0 4 5 4 10 0 6 -5 10 -11 10 -5 0
-7 -4 -4 -10z"/>
<path d="M2688 5253 c7 -3 16 -2 19 1 4 3 -2 6 -13 5 -11 0 -14 -3 -6 -6z"/>
<path d="M2695 5230 l-30 -8 27 -1 c15 0 30 4 33 9 3 6 5 9 3 9 -2 -1 -16 -5
-33 -9z"/>
<path d="M2066 5113 c-3 -3 -6 -25 -7 -47 -1 -49 -16 -103 -19 -71 -5 49 -19
-61 -26 -196 -5 -98 -3 -148 4 -153 5 -3 8 -25 6 -49 l-3 -42 8 38 c10 48 17
54 25 22 4 -15 19 -39 33 -53 30 -30 92 -66 101 -58 3 3 12 1 19 -6 11 -9 16
-9 22 1 8 13 29 19 69 20 15 1 26 9 29 22 4 16 8 17 14 7 6 -8 9 1 11 27 3 70
1 79 -36 135 -20 30 -42 67 -49 83 -6 15 -15 27 -18 27 -3 0 -14 -18 -24 -40
-10 -22 -23 -39 -29 -37 -21 7 -45 101 -46 179 0 42 -4 87 -9 100 -12 32 -67
99 -75 91z"/>
<path d="M2681 4928 c57 -60 76 -88 58 -88 -6 0 -37 28 -68 61 l-57 62 -57
-114 c-32 -64 -59 -134 -63 -160 -5 -43 -4 -47 30 -77 20 -18 45 -32 56 -32
10 0 34 19 53 43 54 65 137 189 137 203 0 17 -95 130 -120 144 -10 6 4 -13 31
-42z"/>
<path d="M5835 4960 c4 -6 11 -8 16 -5 14 9 11 15 -7 15 -8 0 -12 -5 -9 -10z"/>
<path d="M9410 4920 c0 -6 7 -10 15 -10 8 0 15 2 15 4 0 2 -7 6 -15 10 -8 3
-15 1 -15 -4z"/>
<path d="M6616 4895 c-11 -8 -15 -15 -9 -15 7 0 15 5 18 10 4 6 11 7 17 4 7
-4 8 -2 4 4 -9 14 -7 15 -30 -3z"/>
<path d="M9440 4900 c-8 -5 -10 -10 -5 -10 6 0 17 5 25 10 8 5 11 10 5 10 -5
0 -17 -5 -25 -10z"/>
<path d="M2545 4879 c-4 -6 -5 -12 -2 -15 2 -3 7 2 10 11 7 17 1 20 -8 4z"/>
<path d="M9520 4873 c14 -9 31 -23 38 -30 15 -15 22 -16 22 -5 0 9 -62 52 -75
52 -5 0 2 -8 15 -17z"/>
<path d="M3310 4826 c0 -13 -4 -26 -9 -28 -13 -4 -24 -188 -12 -188 5 0 17 7
25 16 13 12 16 38 16 120 0 63 -4 104 -10 104 -5 0 -10 -11 -10 -24z"/>
<path d="M3015 4719 c-42 -31 -65 -57 -65 -72 0 -4 5 -5 12 -1 7 4 8 3 4 -5
-12 -19 30 -48 79 -56 55 -8 65 -2 65 34 0 40 -31 131 -44 131 -6 0 -29 -14
-51 -31z m0 -24 c-11 -8 -26 -19 -32 -25 -7 -6 -13 -7 -13 -2 0 11 40 41 55
41 6 0 1 -6 -10 -14z"/>
<path d="M2032 4530 c0 -14 2 -19 5 -12 2 6 2 18 0 25 -3 6 -5 1 -5 -13z"/>
<path d="M2040 4489 c0 -8 11 -38 25 -65 14 -27 25 -54 25 -59 0 -6 48 -21
108 -33 115 -24 157 -28 133 -13 -10 7 -12 24 -8 67 3 33 3 48 0 34 -9 -45
-32 -47 -177 -13 -65 15 -69 18 -87 57 -10 22 -19 34 -19 25z"/>
<path d="M2332 4480 c0 -14 2 -19 5 -12 2 6 2 18 0 25 -3 6 -5 1 -5 -13z"/>
<path d="M3075 4003 c-43 -22 -115 -94 -115 -115 0 -15 7 -12 48 14 67 45 132
98 132 109 0 14 -31 10 -65 -8z"/>
<path d="M2609 3961 c22 -26 48 -54 58 -62 16 -13 16 -11 -1 16 -38 61 -67 95
-82 95 -11 0 -3 -16 25 -49z"/>
<path d="M6277 3304 c-8 -8 1 -24 12 -24 4 0 8 7 8 15 0 16 -9 20 -20 9z"/>
<path d="M2120 3229 c0 -3 7 -20 16 -37 8 -18 12 -37 8 -43 -4 -8 -3 -9 4 -5
7 4 12 2 12 -4 0 -18 38 -97 80 -166 44 -71 55 -103 45 -133 -5 -18 -8 -19
-21 -7 -8 8 -14 20 -14 27 0 11 -37 78 -49 89 -4 3 -7 10 -8 15 -6 27 -84 220
-92 228 -6 6 -13 -1 -17 -19 -4 -16 -13 -38 -19 -49 -7 -11 -23 -50 -35 -87
-12 -38 -26 -68 -31 -68 -6 0 -7 -4 -4 -10 3 -5 2 -10 -3 -10 -5 0 -15 -26
-22 -57 -8 -32 -19 -61 -24 -65 -7 -5 -7 -8 2 -8 6 0 12 -5 12 -11 0 -5 -4 -8
-9 -5 -18 12 -19 -38 -1 -113 25 -102 85 -225 136 -278 36 -39 45 -43 88 -43
39 0 48 4 56 23 17 40 80 385 80 438 0 44 -7 63 -52 137 -28 46 -66 121 -85
166 -30 71 -53 112 -53 95z"/>
<path d="M2888 3193 c6 -2 18 -2 25 0 6 3 1 5 -13 5 -14 0 -19 -2 -12 -5z"/>
<path d="M8524 3105 c25 -19 36 -19 36 0 0 10 -10 15 -27 15 -27 -1 -27 -1 -9
-15z"/>
<path d="M9781 3104 c0 -11 3 -14 6 -6 3 7 2 16 -1 19 -3 4 -6 -2 -5 -13z"/>
<path d="M6486 3023 c-6 -14 -5 -15 5 -6 7 7 10 15 7 18 -3 3 -9 -2 -12 -12z"/>
<path d="M6510 3016 c0 -2 7 -9 15 -16 12 -10 15 -10 15 4 0 9 -7 16 -15 16
-8 0 -15 -2 -15 -4z"/>
<path d="M6507 2985 c5 -14 3 -17 -9 -13 -8 4 -15 1 -15 -7 0 -11 5 -11 21 -3
12 6 22 12 24 13 1 1 -4 8 -13 15 -13 11 -14 10 -8 -5z"/>
<path d="M1909 2943 c-5 -14 -8 -30 -6 -36 1 -5 8 7 14 27 13 42 7 49 -8 9z"/>
<path d="M760 2944 c0 -8 5 -12 10 -9 6 3 10 10 10 16 0 5 -4 9 -10 9 -5 0
-10 -7 -10 -16z"/>
<path d="M5875 2906 c-71 -47 -79 -59 -70 -103 13 -74 85 -242 113 -263 41
-33 68 -19 165 83 124 129 156 202 100 231 -31 15 -234 86 -249 86 -5 0 -32
-15 -59 -34z m-25 -60 c0 -2 -7 -6 -15 -10 -8 -3 -15 -1 -15 4 0 6 7 10 15 10
8 0 15 -2 15 -4z m4 -47 c-8 -14 -21 -11 -21 5 0 8 6 12 14 9 7 -3 10 -9 7
-14z m20 -75 c3 -8 2 -12 -4 -9 -6 3 -10 10 -10 16 0 14 7 11 14 -7z m27 -38
c10 6 13 -9 3 -19 -12 -11 -33 5 -27 21 4 10 8 12 11 4 2 -7 8 -10 13 -6z m10
-83 c-12 -20 -14 -14 -5 12 4 9 9 14 11 11 3 -2 0 -13 -6 -23z"/>
<path d="M771 2864 c0 -11 3 -14 6 -6 3 7 2 16 -1 19 -3 4 -6 -2 -5 -13z"/>
<path d="M1200 2772 c0 -8 -26 -12 -79 -12 -107 0 -111 -14 -6 -18 69 -2 84 1
89 14 4 9 4 19 1 22 -3 3 -5 0 -5 -6z"/>
<path d="M130 2685 c0 -91 19 -102 22 -12 1 41 3 50 5 25 4 -37 5 -38 44 -38
21 0 39 -4 39 -10 0 -5 19 -11 43 -12 23 -1 4 -5 -43 -8 l-85 -6 80 -2 c44 -1
86 2 93 6 8 5 12 30 11 70 l-2 62 -103 0 -104 0 0 -75z"/>
<path d="M551 2702 c0 -31 3 -51 6 -44 2 7 22 12 44 12 38 0 39 1 39 35 0 34
1 35 39 35 36 0 40 -3 44 -27 l4 -28 2 28 c3 56 21 24 23 -40 l1 -68 6 65 c3
36 5 70 3 75 -1 6 -48 11 -107 12 l-105 2 1 -57z"/>
<path d="M1602 2740 c0 -14 2 -19 5 -12 2 6 2 18 0 25 -3 6 -5 1 -5 -13z"/>
<path d="M1458 2743 c12 -2 32 -2 45 0 12 2 2 4 -23 4 -25 0 -35 -2 -22 -4z"/>
<path d="M1002 2700 c0 -14 2 -19 5 -12 2 6 2 18 0 25 -3 6 -5 1 -5 -13z"/>
<path d="M5537 2613 c-22 -21 14 -345 50 -453 25 -77 48 -78 162 -9 47 28 105
67 128 85 69 56 78 125 20 155 l-22 12 20 -23 20 -24 -25 17 c-28 20 -44 22
-34 5 5 -7 3 -8 -5 -4 -7 5 -10 10 -8 13 6 6 -36 50 -44 46 -4 -1 -9 4 -13 12
-3 8 -2 15 2 15 14 0 37 -20 37 -31 0 -7 8 -13 18 -15 26 -4 13 10 -66 70
-150 112 -220 150 -240 129z"/>
<path d="M1875 2568 c-4 -24 -9 -52 -12 -63 -3 -11 -9 -62 -15 -112 -10 -83
-9 -97 8 -134 10 -24 34 -52 55 -66 35 -23 39 -24 67 -9 40 21 45 30 37 73 -4
24 -9 32 -14 24 -5 -8 -8 -2 -9 16 0 32 -93 313 -104 313 -3 0 -9 -19 -13 -42z
m69 -164 c3 -8 2 -12 -4 -9 -6 3 -10 10 -10 16 0 14 7 11 14 -7z"/>
<path d="M138 2593 c7 -3 16 -2 19 1 4 3 -2 6 -13 5 -11 0 -14 -3 -6 -6z"/>
<path d="M18 2563 c12 -2 32 -2 45 0 12 2 2 4 -23 4 -25 0 -35 -2 -22 -4z"/>
<path d="M91 2543 c2 -27 2 -27 7 -3 5 21 7 17 13 -20 l7 -45 -2 44 c0 26 -6
46 -13 49 -9 2 -13 -6 -12 -25z"/>
<path d="M351 2543 c2 -28 2 -28 7 -3 4 23 5 24 13 5 7 -19 8 -19 8 3 1 13 -5
22 -14 22 -10 0 -15 -9 -14 -27z"/>
<path d="M5948 2103 c7 -3 16 -2 19 1 4 3 -2 6 -13 5 -11 0 -14 -3 -6 -6z"/>
<path d="M5988 2093 c7 -3 16 -2 19 1 4 3 -2 6 -13 5 -11 0 -14 -3 -6 -6z"/>
<path d="M6065 2075 c22 -8 49 -13 60 -13 11 0 -2 6 -30 14 -63 17 -84 16 -30
-1z"/>
<path d="M5965 2070 c3 -5 14 -10 23 -10 15 0 15 2 2 10 -20 13 -33 13 -25 0z"/>
<path d="M6000 2053 c-8 -3 -18 -11 -22 -18 -4 -7 -20 -11 -35 -9 -24 4 -25 3
-8 -5 18 -9 17 -10 -10 -11 -18 -2 -23 -4 -12 -7 9 -2 17 -9 17 -14 0 -5 7 -9
15 -9 8 0 15 -4 15 -10 0 -5 -3 -10 -7 -10 -5 0 -8 -11 -8 -25 0 -16 5 -23 12
-21 7 3 15 0 19 -6 5 -7 2 -8 -6 -3 -8 5 -11 3 -8 -6 3 -8 11 -13 17 -11 6 1
11 -2 11 -8 0 -5 -4 -10 -10 -10 -5 0 -10 -5 -10 -11 0 -6 7 -8 16 -5 8 3 12
2 9 -3 -3 -5 5 -17 17 -25 12 -9 18 -16 13 -16 -16 0 -66 44 -68 60 -4 23 -17
41 -27 35 -5 -3 -12 0 -16 6 -4 8 -3 9 4 5 8 -5 10 -2 6 8 -3 9 -10 13 -15 10
-13 -8 -11 20 2 33 8 8 7 13 -1 18 -6 4 -16 3 -22 -3 -13 -13 27 -106 42 -97
5 3 7 0 4 -8 -6 -16 44 -59 88 -76 25 -9 30 -7 57 26 33 40 111 187 111 209 0
11 -6 11 -27 3 -15 -6 -29 -6 -32 -1 -7 11 -110 23 -131 15z m50 -13 c0 -5 -6
-10 -14 -10 -8 0 -21 -3 -30 -6 -9 -3 -16 -1 -16 4 0 10 19 18 48 21 6 0 12
-3 12 -9z m50 -4 c0 -2 -7 -7 -16 -10 -8 -3 -12 -2 -9 4 6 10 25 14 25 6z
m-53 -22 c-3 -3 -12 -4 -19 -1 -8 3 -5 6 6 6 11 1 17 -2 13 -5z m-57 -74 c0
-5 -5 -10 -11 -10 -5 0 -7 5 -4 10 3 6 8 10 11 10 2 0 4 -4 4 -10z m47 -95 c0
-8 -4 -15 -9 -15 -10 0 -11 14 -1 23 9 10 10 9 10 -8z"/>
<path d="M2044 1753 c4 -9 10 -36 13 -60 4 -31 2 -44 -8 -47 -14 -4 -67 -15
-172 -37 -31 -7 -55 -14 -53 -16 2 -2 72 2 156 8 146 12 152 14 161 36 5 14 9
27 9 31 0 15 -71 83 -80 77 -6 -3 -10 1 -10 9 0 9 -5 16 -11 16 -6 0 -8 -7 -5
-17z"/>
<path d="M1740 1710 c0 -5 14 -10 30 -10 17 0 30 5 30 10 0 6 -13 10 -30 10
-16 0 -30 -4 -30 -10z"/>
<path d="M4423 1256 c2 -6 23 -10 45 -9 24 1 40 -3 36 -8 -3 -5 9 -10 25 -10
17 -1 44 -2 60 -3 23 -1 29 3 29 22 0 23 -2 23 -100 21 -65 -2 -97 -6 -95 -13z
m157 -10 c0 -3 -4 -8 -10 -11 -5 -3 -10 -1 -10 4 0 6 5 11 10 11 6 0 10 -2 10
-4z"/>
<path d="M5970 1233 c28 -53 26 -100 -5 -129 -14 -13 -25 -21 -25 -18 0 3 -12
-7 -27 -21 -16 -15 -40 -33 -55 -41 -16 -8 -28 -17 -28 -20 0 -8 79 3 150 21
30 7 69 16 85 18 17 3 38 8 48 12 10 4 24 2 33 -6 13 -11 14 -9 2 17 -15 33
-33 55 -40 48 -3 -2 -18 12 -34 33 -31 41 -110 123 -119 123 -3 0 4 -17 15
-37z"/>
<path d="M8690 1180 c0 -11 5 -20 10 -20 6 0 10 9 10 20 0 11 -4 20 -10 20 -5
0 -10 -9 -10 -20z"/>
<path d="M8358 1103 c23 -2 61 -2 85 0 23 2 4 4 -43 4 -47 0 -66 -2 -42 -4z"/>
<path d="M7030 1034 l0 -36 91 4 c87 3 90 4 86 25 -2 12 0 20 4 17 5 -3 9 -20
9 -37 1 -25 3 -29 10 -15 6 9 9 27 8 41 -2 21 -8 26 -46 31 -25 3 -71 6 -103
6 l-59 0 0 -36z"/>
<path d="M7607 1064 c-1 -2 -32 -4 -67 -5 -36 -1 -68 -7 -72 -13 -12 -18 -9
-36 6 -36 8 0 17 -6 19 -12 3 -7 6 1 7 17 l2 30 8 -30 c4 -16 8 -24 9 -17 1 7
16 12 41 12 27 0 43 5 46 15 6 14 8 13 21 -2 14 -17 14 -17 10 5 -3 12 -1 20
4 16 5 -3 9 -12 9 -20 0 -8 4 -13 9 -10 5 3 9 16 9 29 0 19 -6 24 -29 24 -16
0 -30 -2 -32 -3z"/>
<path d="M8079 1066 c-3 -3 -44 -6 -92 -7 -87 -2 -87 -2 -86 -28 0 -23 1 -24
9 -6 5 11 9 14 9 8 1 -8 16 -13 41 -13 30 0 40 4 40 16 0 13 9 15 45 12 31 -2
45 1 45 9 0 14 -4 16 -11 9z"/>
</g>
</svg>
